<svg version="1.1" id="Layer_1" xmlns="http://www.w3.org/2000/svg" xmlns:xlink="http://www.w3.org/1999/xlink" x="0px" y="0px"
     width="612px" height="792px" viewBox="0 0 612 792">
    <style>
        .line {
        stroke-dasharray: 3400;
        stroke-dashoffset: 3400;
        animation: draw 14s forwards ease;
        height: 20px;
        stroke: white;
        stroke-width: 1;
        }

        .color {
        opacity: 0;
        animation: color 3.5s forwards ease 5.5s;
        }

        .blue {
        fill: blue;
        }

        .white {
        fill: white;
        }

        .white-shadow {
        fill: #e5e2e2;
        }

        .silver {
        fill: #c0c0c0;
        }

        .gray {
        fill: gray;
        }

        #drk-blue {
        fill: #100f4c;
        }

        #eye {
        stroke: red;
        fill: red;
        opacity: 0;
        stroke-width: 10;
        animation: eyeGlow 2s infinite ease 6s;
        }

        @keyframes draw {
        to {
        stroke-dashoffset: 0;
        }
        }

        @keyframes eyeGlow {
        0% {
        opacity: 0;
        }
        50% {
        opacity: 1;
        }
        100% {
        opacity: 0;
        }
        }

        @keyframes color {
<!--        to {-->
<!--        opacity: 1;-->
<!--        }-->
        }
    </style>
    <g>
        <path class="line color blue" d="M280.951,74.806c6.666,12.61,20.542,38.383,10.688,53.437
    c-3.577-10.188-5.98-24.249-10.02-36.07C279.136,84.906,275.546,80.36,280.951,74.806z"/>
        <path class="line color drk-blue" d="M345.744,105.532c-11.365,21.463-58.472-0.485-48.762-22.71
    c2.668-6.107,14.887-8.222,24.047-6.68C333.823,78.294,346.495,90.014,345.744,105.532z"/>
        <path class="line" d="M357.1,112.879c0.445,0,0.891,0,1.336,0
    c4.87,2.798,6.567,13.18,0,15.363C362.76,123.51,358.206,117.922,357.1,112.879z"/>
        <path class="line color blue" d="M311.01,120.895c-1.187,3.266-3.513,5.394-4.676,8.684
    c-4.813-0.603-9.511,1.024-12.691,0c0.568-3.217,2.152-5.418,3.34-8.016C302.401,122.083,305.817,120.601,311.01,120.895z"/>
        <path class="line color blue" d="M359.104,122.899c-0.253,3.533-2.354,5.217-3.34,8.016
    c-15.16-1.761-31.006,0.866-47.426,0c1.212-3.687,3.429-6.368,5.344-9.352C328.156,122.674,344.821,121.595,359.104,122.899z"/>
        <path class="line color blue" d="M285.627,122.899c0.702,11.544,1.48,23.012,2.672,34.066
    c-7.039,1.867-15.518,2.295-22.71,4.008c-0.522-12.169-1.552-23.831-2.004-36.07C270.341,123.644,277.362,122.65,285.627,122.899z
    "/>
        <path class="line" d="M258.241,124.903c0.92,11.886,1.813,26.975,1.336,38.074
    c-3.652,0.356-6.417,1.599-10.688,1.336c-0.977-11.61-2.234-26.103-1.336-37.406C250.802,125.925,253.753,124.646,258.241,124.903
    z M249.557,127.575c-0.306,9.914,0.673,24.239,1.336,35.402c3.188,0.516,4.299-1.044,7.348-0.668
    c-1.399-11.292-1.324-24.059-2.004-36.07C253.828,126.501,251.757,127.103,249.557,127.575z"/>
        <path class="line color blue" d="M256.237,126.239c0.68,12.011,0.605,24.778,2.004,36.07
    c-3.049-0.376-4.16,1.184-7.348,0.668c-0.663-11.163-1.642-25.488-1.336-35.402C251.757,127.103,253.828,126.501,256.237,126.239z
    "/>
        <path class="line" d="M365.783,130.915c-8.185,11.362,0.446,30.379,16.03,26.05
    c-9.04,9.745-22.792-4.751-23.378-15.363C358.229,137.857,358.695,129.936,365.783,130.915z"/>
        <path class="line" d="M379.142,130.915c6.876,0.472,9.232,5.462,10.02,12.023
    C382.473,145.162,376.995,137.563,379.142,130.915z"/>
        <path class="line" d="M370.459,132.25c-5.563,7.671,1.801,22.196,13.358,18.703
    c0.449,5.552-7.598,4.624-10.02,4.008c-7.76-1.975-12.302-16.549-6.679-23.378C369.007,131.03,368.849,132.524,370.459,132.25z"/>
        <path class="line color gray" d="M377.806,131.583c-1.747,6.729,2.34,13.185,8.684,14.027
    C377.448,159.512,359.974,133.315,377.806,131.583z"/>
        <path class="line color blue" d="M236.198,132.25c3.095,8.483,0.462,22.694,1.336,33.398
    c-28.704,3.359-51.1,16.586-65.46,32.062c1.54-13.49-0.414-29.76,5.344-39.41c3.208-5.376,18.646-12.78,25.383-16.031
    C214.078,136.826,225.518,134.219,236.198,132.25z"/>
        <path class="line color blue" d="M348.416,132.918c1.793,7.78,3.788,15.36,3.34,25.382
    c-13.223-1.027-26.892-1.609-40.746-2.004c0.902-8.267-5.333-18.517-0.668-24.046
    C323.237,132.269,335.045,133.375,348.416,132.918z M327.709,146.946c1.711,9.819,19.945,13.575,21.375,1.336
    c0.976-8.356-4.59-14.145-13.359-12.691C329.752,136.58,326.446,139.699,327.709,146.946z"/>
        <path class="line" d="M304.33,133.586c1.015,7.892,2.002,15.81,2.004,24.714
    c-3.793,1.212-8.459,1.641-12.691,0.668c-1.262-7.644-1.849-15.963-2.672-24.046C293.113,132.48,300.604,132.268,304.33,133.586z
     M295.646,157.633c3.626,0.509,5.177-1.058,8.684-0.668c-0.524-7.713-1.625-14.852-2.004-22.71c-2.895,0-5.789,0-8.684,0
    C293.552,142.806,295.071,149.747,295.646,157.633z"/>
        <path class="line color blue" d="M293.643,134.254c2.895,0,5.789,0,8.684,0
    c0.379,7.859,1.479,14.997,2.004,22.71c-3.507-0.39-5.057,1.177-8.684,0.668C295.071,149.747,293.552,142.806,293.643,134.254z"/>
        <path class="line" d="M335.725,135.59c8.77-1.454,14.335,4.335,13.359,12.691
    c-1.43,12.239-19.664,8.483-21.375-1.336C326.446,139.699,329.752,136.58,335.725,135.59z M329.045,146.278
    c1.117,8.782,18.469,12.345,18.703,0.668c0.12-6-4.751-11.072-11.355-10.02C331.205,137.752,328.348,140.803,329.045,146.278z"/>
        <path class="line" id="eye" d="M336.393,136.926c6.604-1.052,11.476,4.019,11.355,10.02
    c-0.234,11.677-17.586,8.114-18.703-0.668C328.348,140.803,331.205,137.752,336.393,136.926z"/>
        <path class="line" d="M391.165,138.93c0.108-0.783,1.218-0.563,2.004-0.668
    c5.948,8.97,8.545,21.291,10.688,34.066c-5.416-1.666-4.507-10.566-6.012-16.031C396.096,149.942,393.49,143.428,391.165,138.93z"
        />
        <path class="line color blue" d="M390.497,142.27c3.213,7.252,4.941,15.988,6.012,25.382
    c-3.553-0.01-4.991-2.134-8.016-2.672c-1.352-4.882-0.979-11.489-3.34-15.363C386.413,146.646,390.313,146.316,390.497,142.27z"/>
        <path class="line" d="M409.2,189.695c-1.693,1.508-2.484-2.549-4.008-4.008
    c-21.06-20.177-79.47-20.241-120.901-16.031c-48.743,4.954-87.944,17.718-111.55,40.746
    c-1.491-12.036,11.643-18.571,20.707-23.379c29.002-15.384,69.397-21.418,111.55-23.379c29.396-1.367,66.794-0.616,88.171,10.02
    C400.199,177.162,410.016,180.298,409.2,189.695z"/>
        <path class="line color silver" d="M410.536,207.062c-0.829,1.281-3.278-2.127-5.344-4.008
    c-24.155-21.996-88.841-18.731-132.925-13.359c-33.666,4.103-62.681,14.407-84.163,26.719c-5.051,2.894-10.355,8.917-12.691,8.016
    c-1.394-0.538-3.486-5.004-2.672-9.352c1.63-8.698,15.659-15.257,24.715-20.039c29.599-15.631,65.928-21.726,110.214-24.047
    c15.769-0.826,42.002-0.523,60.785,2.672C388.495,177.073,411.483,183.533,410.536,207.062z"/>
        <path class="line color white" d="M391.833,197.043c3.723,25,6.014,51.431,8.016,78.152
    c-19.277-5-57.026-7.099-82.827-6.012c-6.45,0.272-6.101,2.161-11.355,0.668c3.028,0.861,7.045-1.231,9.352-1.336
    c6.461-0.293,21.441,0.224,31.395,0c2.258-0.414,0.87-4.474,2.672-5.344c16.515,0.239,27.693,10.879,44.753,4.676
    c2.044-2.632,1.139-8.213,1.336-12.691c-6.989-3.509-12.896-10.147-20.707-10.688c-7.676-0.531-16.073,7.251-26.718,4.008
    c-2.583-0.312-0.964-4.826-3.34-5.344c-20.949,2.048-39.744-1.319-56.109,3.34c-4.468,1.272-7.909,4.925-12.023,6.012
    c-7.047,1.861-13.298,0.365-19.371,2.672c-1.084,2.351-0.067,9.596,1.336,13.359c11.571-0.959,21.521-0.754,29.39,3.34
    c-11.192,2.389-22.699,4.464-34.734,6.012c-1.79-26.995-7.083-53.841-7.348-80.156
    C286.134,188.676,351.636,184.794,391.833,197.043z M252.229,199.715c-0.348,3.688,0.383,6.297,0.668,9.352
    c41.823-4.127,93.879-7.05,136.264,0.668c1.564-2.957-0.588-7.225-0.668-10.688C349.648,189.976,290.615,191.129,252.229,199.715z
     M371.127,211.738c-16.011-5.744-37.344-0.222-56.777-1.336c-0.397,1.384,0.825,4.388-0.668,4.676
    c-10.071,3.159-18.448-2.679-26.719-2.672c-5.189,0.004-11.301,3.244-16.699,4.676c-5.527,1.465-11.103,2.681-16.031,5.344
    c0.033,4.865-0.427,10.224,1.336,13.359c10.474,0.659,19.856,2.409,31.394,2.004c7.412-4.166,15.889-7.267,28.723-6.012
    c1.362,0.419,0.188,3.375,2.672,2.672c17.461-0.757,36.175,4.667,52.77,2.672c7.533-0.905,13.974-6.542,21.374-3.34
    c1.188-3.699-0.395-9.038-1.336-12.691C382.501,221.95,378.827,214.501,371.127,211.738z"/>
        <path class="line" d="M388.493,199.047c0.08,3.462,2.232,7.731,0.668,10.688
    c-42.385-7.718-94.441-4.795-136.264-0.668c-0.285-3.055-1.016-5.664-0.668-9.352
    C290.615,191.129,349.648,189.976,388.493,199.047z M377.806,199.715c-37.471-6.085-86.734-4.279-122.905,0.668
    c0,2.672,0,5.344,0,8.016c29.83-5.428,67.672-8.124,101.531-5.344c11.062,0.908,21.732,3.789,31.394,2.672
    C388.377,199.613,381.738,200.354,377.806,199.715z"/>
        <path class="line color blue" d="M387.825,205.727c-9.661,1.117-20.332-1.764-31.394-2.672
    c-33.858-2.78-71.701-0.084-101.531,5.344c0-2.672,0-5.344,0-8.016c36.171-4.947,85.434-6.753,122.905-0.668
    C381.738,200.354,388.377,199.613,387.825,205.727z"/>
        <path class="line" d="M391.165,221.09c0.941,3.653,2.523,8.992,1.336,12.691
    c-7.4-3.202-13.841,2.435-21.374,3.34c-16.595,1.995-35.309-3.429-52.77-2.672c-2.484,0.703-1.31-2.252-2.672-2.672
    c-12.833-1.255-21.311,1.846-28.723,6.012c-11.538,0.405-20.92-1.345-31.394-2.004c-1.763-3.135-1.303-8.494-1.336-13.359
    c4.928-2.663,10.504-3.879,16.031-5.344c5.398-1.432,11.509-4.671,16.699-4.676c8.271-0.007,16.648,5.831,26.719,2.672
    c1.493-0.288,0.271-3.292,0.668-4.676c19.434,1.114,40.767-4.408,56.777,1.336C378.827,214.501,382.501,221.95,391.165,221.09z
     M317.021,216.414c-10.283,4.942-20.876-1.287-30.059-1.336c-11.224-0.061-20.876,6.394-31.394,8.016
    c0.406,4.047-0.037,8.943,2.004,11.355c11.188-2.303,20.988,1.883,30.726,0.668c8.724-1.088,17.646-9.394,29.391-6.012
    c1.52,0.485-0.615,4.623,2.004,4.008c18.201-2.337,36.567,3.503,52.769,1.336c6.341-0.848,11.874-5.388,18.035-3.34
    c0.399-3.517-0.495-5.739-0.668-8.683c-3.419,0.524-4.852-0.937-8.016-0.668c-11.803-13.357-41.559-8.761-65.46-10.02
    C316.566,213.306,317.408,214.245,317.021,216.414z"/>
        <path class="line color blue" d="M316.354,211.738c23.901,1.258,53.657-3.338,65.46,10.02
    c3.164-0.269,4.597,1.192,8.016,0.668c0.173,2.944,1.067,5.167,0.668,8.683c-6.161-2.048-11.694,2.492-18.035,3.34
    c-16.201,2.167-34.567-3.673-52.769-1.336c-2.619,0.615-0.484-3.523-2.004-4.008c-11.745-3.382-20.667,4.923-29.391,6.012
    c-9.738,1.215-19.538-2.971-30.726-0.668c-2.041-2.412-1.598-7.308-2.004-11.355c10.518-1.622,20.17-8.076,31.394-8.016
    c9.183,0.049,19.775,6.278,30.059,1.336C317.408,214.245,316.566,213.306,316.354,211.738z"/>
        <path class="line" d="M228.85,215.078c3.303,3.799,2.665,11.894,3.34,20.039
    c4.145,50.012,8.704,105.484,13.359,154.968c-9.01,1.009-15.021,5.019-24.715,5.344c-5.677-55.554-11.944-114.078-14.695-170.331
    C211.786,219.834,220.333,217.47,228.85,215.078z M208.144,224.43c4.17,56.837,9.765,112.249,14.695,168.327
    c6.63-1.609,13.224-3.252,19.371-5.344c-5.59-55.837-8.064-114.885-15.363-168.995
    C220.063,219.873,214.701,222.749,208.144,224.43z"/>
        <path class="line color white" d="M226.846,218.418c7.299,54.109,9.773,113.157,15.363,168.995
    c-6.147,2.091-12.741,3.735-19.371,5.344c-4.93-56.078-10.524-111.49-14.695-168.327
    C214.701,222.749,220.063,219.873,226.846,218.418z"/>
        <path class="line color white" d="M462.638,224.43c26.344,30.603,9.607,92.849,0,129.584
    c-12.11,0.358-23.624,1.314-35.402,2.004c-2.01-13.576-2.414-28.757-4.676-42.082c8.801-11.487,12.475-38.265,7.348-59.449
    c-2.663-11.005-3.653-22.737-16.031-22.711c0.429-2.688-0.868-7.103,0.668-8.683C429.748,224.366,447.642,222.949,462.638,224.43z
    "/>
        <path class="line color white" d="M178.753,362.03c-9.122,5.197-21.844,0.304-31.395,2.004
    c-5.886,1.048-9.706,8.017-15.363,5.344c-1.268-1.43,3.269-5.216,4.008-8.016c1.839-6.966,1.575-20.612,2.004-30.058
    c1.412-31.087,3.072-77.34-4.008-97.523c-1.215-3.462-2.512-6.803-6.68-8.016c13.151-2.657,31.459-0.158,45.421-2.003
    c0.541,0.127,0.666,0.67,1.336,0.668c0.813,4.035,5.662,8.095,6.68,12.691C188.288,271.121,185.343,329.047,178.753,362.03z"/>
        <path class="line color blue" d="M127.32,226.433c7.386,10.154,7.263,26.854,8.016,43.418
    c1.227,27.011-0.458,58.615-2.004,83.495c-0.347,5.586,1.146,12.851-5.344,14.695c0.804-15.535,4.522-31.733,4.008-48.093
    c-0.209-6.63-2.814-13.012-2.672-19.371c0.25-11.212,6.063-31.975-3.34-42.082c-5.856,2.011-4.37,15.146-2.672,20.707
    c-3.493,1.405-0.606,9.191-6.012,8.684c-0.295-16.438,0.022-44.856,6.012-60.785C125.355,227.586,125.277,225.949,127.32,226.433z
    "/>
        <path class="line color white" d="M180.089,233.113c23.084,9.952,19.146,59.848,7.348,81.492
    C187.485,287.58,188.16,254.235,180.089,233.113z"/>
        <path class="line color white-shadow" d="M415.212,233.113c18.244,11.832,17.229,53.949,8.016,74.812
    C418.958,284.586,417.777,258.157,415.212,233.113z"/>
        <path class="line color blue" d="M342.404,245.804c2.9-0.229,1.287,4.057,2.672,5.344
    c11.061-0.517,21.855-1.3,30.058-4.676c5.417,3.267,11.207,6.161,17.367,8.684c0.562,3.445,0.872,7.144,0.668,11.355
    c-18.169,4.674-29.521-4.433-46.089-6.68c-0.692,1.757-0.8,4.099-0.668,6.68c-20.37-0.108-41.062-0.538-57.445,3.34
    c-8.506-4.454-18.885-5.23-30.058-2.672c-0.202-3.807-1.284-6.732-1.336-10.688c12.143-1.439,25.073-2.091,32.062-8.684
    C306.239,246.155,323.702,245.36,342.404,245.804z M371.795,257.828c-36.605-3.959-81.17-1.3-112.218,5.344
    c41.082-4.908,92.676-6.502,131.588-0.668C386.701,258.051,378.542,258.557,371.795,257.828z"/>
        <path class="line" d="M391.165,262.503c-38.912-5.834-90.506-4.24-131.588,0.668
    c31.048-6.644,75.613-9.303,112.218-5.344C378.542,258.557,386.701,258.051,391.165,262.503z"/>
        <path class="line" d="M125.316,260.5c2.96,3.947,4.11,13.25,2.672,19.371
    C121.444,279.003,124.031,265.162,125.316,260.5z"/>
        <path class="line" d="M288.967,271.855c0.988-1.446,23.797-3.527,10.02-1.336
    C295.757,271.033,293.571,271.565,288.967,271.855z"/>
        <path class="line" d="M361.775,275.195c4.979,42.447,10.145,84.706,13.358,128.917
    c-17.639,0.716-38.292,1.653-55.44,0.668c-5.207-41.995-9.235-85.169-13.359-128.249
    C320.224,271.613,346.144,272.273,361.775,275.195z M309.674,277.867c2.088,34.427,6.804,66.227,9.352,100.194
    c16.446-1.144,34.1-1.079,50.766-2.004c-2.714-33.801-7.292-65.739-10.02-99.526C343.1,275.718,324.691,275.246,309.674,277.867z
     M331.717,380.733c-4.153,0.263-10.062-1.562-12.023,2.672c1.322,3.411,5.883,0.912,8.684,0.668
    c5.776-0.504,13.293-1.04,20.039-1.336c7.904-0.348,16.963,1.855,22.043-2.004C359.327,379.372,343.742,379.972,331.717,380.733z
     M320.361,387.413c0.542,5.247,0.579,10.999,2.004,15.363c15.748-1.396,33.949-0.34,50.765-0.668
    c-0.497-5.736-1.881-10.586-2.003-16.699C353.452,385.324,335.851,385.312,320.361,387.413z"/>
        <path class="line color blue" d="M359.771,276.531c2.728,33.787,7.306,65.725,10.02,99.526
    c-16.666,0.925-34.319,0.86-50.766,2.004c-2.548-33.968-7.264-65.767-9.352-100.194
    C324.691,275.246,343.1,275.718,359.771,276.531z M325.037,278.535c-10.253,3.652-11.642,29.396-3.34,40.746
    c8.483,11.597,37.148,7.854,39.41-6.012c1.062-6.51-2.431-25.095-4.676-28.723c-3.706-5.986-12.812-7.101-22.043-6.679
    C331.524,277.998,326.495,278.015,325.037,278.535z M355.764,327.964c-6.083-2.638-18.182-2.318-24.047-0.668
    c-15.457,4.349-14.926,41.288,1.336,46.757c7.019,2.36,13.777-0.236,24.047,0C371.401,368.071,367.868,333.213,355.764,327.964z"
        />
        <path class="line" d="M402.521,280.539c3.923,32.373,9.517,66.627,10.02,100.194
    c-10.659,0.608-23.554-2.25-36.07-2.004c-4.961-32.222-7.847-66.52-12.022-99.527c0.541-0.127,0.665-0.67,1.336-0.667
    c-0.029-1.143,0.496-1.73,1.336-2.004C380.427,276.359,391.79,278.133,402.521,280.539z M367.787,278.535
    c2.492,33.8,7.39,65.194,10.687,98.19c11.4-0.49,21.063,0.757,32.062,0.668c-2.07-32.222-7.911-64.224-9.352-94.851
    C389.56,281.699,380.327,278.462,367.787,278.535z"/>
        <path class="line" d="M302.326,277.199c2.467,10.224,3.587,21.796,3.34,34.734
    c-16.825,1.878-33.031,4.375-50.097,6.012c-2.14-10.774-3.292-22.537-4.008-34.734
    C267.466,280.19,284.157,277.955,302.326,277.199z M252.229,283.878c2.172,10.296,2.959,21.979,4.676,32.73
    c15.289-2.523,30.255-5.37,46.757-6.68c0.645-11.332-1.785-19.59-1.336-30.727C285.137,280.271,268.432,281.824,252.229,283.878z"
        />
        <path class="line" d="M334.389,277.867c9.231-0.422,18.337,0.693,22.043,6.679
    c2.245,3.627,5.737,22.213,4.676,28.723c-2.262,13.865-30.927,17.609-39.41,6.012c-8.302-11.349-6.913-37.094,3.34-40.746
    C326.495,278.015,331.524,277.998,334.389,277.867z M351.088,321.952c-12.205,3.7-24.675-0.969-28.055-8.016
    c-2.647-5.519-5.435-18.782-2.672-26.051c4.563-12.005,29.213-10.323,36.07,1.336c-4.979-13.446-31.98-14.497-37.406-2.672
    c-3.15,6.866-0.189,26.036,3.34,31.395c4.675,7.098,18.904,5.797,30.727,4.676c8.835-4.97,5.939-22.759,3.34-32.73
    c0,0.891,0,1.781,0,2.672C358.253,304.01,360.916,318.973,351.088,321.952z M327.709,284.546
    c2.607,0.587,10.613,0.829,12.691-1.336C338.738,281.062,327.578,280.498,327.709,284.546z M341.736,285.882
    c-4.712,1.039-13.228,1-16.031-2.004c-1.725,2.284-4.535,3.48-4.008,8.016c10.57-0.562,21.395-0.871,32.73-0.668
    c-0.555-6.793-6.862-7.833-12.691-9.352C341.736,283.21,341.736,284.546,341.736,285.882z M321.697,301.913
    c10.853-0.726,22.379-0.777,34.066-0.668c0.493-3.165-0.752-4.592-0.668-7.348c-4.23,0-8.461,0-12.691,0
    c-1.769,0.53,1.495,3.14-1.336,3.34c-4.676,0-9.352,0-14.027,0c0.088-1.646,0.101-3.218-0.668-4.008c-1.559,0-3.117,0-4.676,0
    C321.697,296.124,321.697,299.019,321.697,301.913z M340.4,294.565c-2.685-1.546-8.229-0.231-12.023-0.668
    C329.293,296.477,338.803,297.064,340.4,294.565z M329.713,305.253c2.877,1.078,10.876,1.538,12.023-1.336
    C338.899,302.88,331.691,303.21,329.713,305.253z M329.713,307.257c-1.924-0.081-0.346-3.663-2.672-3.34c-1.559,0-3.117,0-4.676,0
    c-0.032,3.149,1.173,5.061,1.336,8.016c11.32-0.451,20.856-0.755,32.062,0c1.314-1.802,0.397-5.837,0.668-8.684
    c-4.453,0-8.906,0-13.359,0C343.997,309.963,334.544,306.299,329.713,307.257z M330.381,315.94
    c3.663-0.79,10.55,1.644,12.023-1.336c-3.312-1.142-8.163-0.743-12.023-1.336C330.381,314.159,330.381,315.05,330.381,315.94z
     M351.756,319.948c2.102-1.46,3.682-3.442,4.676-6.012c-4.23,0-8.461,0-12.691,0c0.889,5.202-15.585,5.202-14.695,0
    c-1.384,0.397-4.389-0.826-4.676,0.668C328.893,321.811,340.876,320.653,351.756,319.948z"/>
        <path class="line color white" d="M401.185,282.542c1.44,30.627,7.281,62.629,9.352,94.851
    c-10.999,0.089-20.662-1.158-32.062-0.668c-3.297-32.996-8.194-64.391-10.687-98.19
    C380.327,278.462,389.56,281.699,401.185,282.542z"/>
        <path class="line color white" d="M302.326,279.202c-0.449,11.137,1.98,19.395,1.336,30.727
    c-16.502,1.31-31.468,4.157-46.757,6.68c-1.717-10.752-2.503-22.434-4.676-32.73C268.432,281.824,285.137,280.271,302.326,279.202
    z"/>
        <path class="line" d="M128.656,281.874c0,1.781,0,3.562,0,5.344
    c-3.098-0.695-5.783,1.231-7.348,0C121.519,282.907,124.209,280.051,128.656,281.874z"/>
        <path class="line" d="M340.4,283.21c-2.078,2.165-10.084,1.923-12.691,1.336
    C327.578,280.498,338.738,281.062,340.4,283.21z"/>
        <path class="line" d="M341.736,281.874c5.829,1.519,12.137,2.558,12.691,9.352
    c-11.336-0.203-22.16,0.105-32.73,0.668c-0.527-4.535,2.283-5.731,4.008-8.016c2.804,3.004,11.319,3.042,16.031,2.004
    C341.736,284.546,341.736,283.21,341.736,281.874z"/>
        <path class="line color white" d="M127.988,289.222c0.913,4.047-2.734,10.205,0,14.695
    c-4.676,0-9.352,0-14.027,0c-2.886-3.126-4.486-7.537-4.676-13.359C114.894,289.487,121.225,289.139,127.988,289.222z"/>
        <path class="line" d="M321.697,293.229c1.559,0,3.117,0,4.676,0
    c0.769,0.79,0.756,2.361,0.668,4.008c4.676,0,9.352,0,14.027,0c2.831-0.2-0.433-2.81,1.336-3.34c4.23,0,8.461,0,12.691,0
    c-0.084,2.755,1.161,4.183,0.668,7.348c-11.688-0.109-23.214-0.058-34.066,0.668C321.697,299.019,321.697,296.124,321.697,293.229
    z"/>
        <path class="line" d="M328.377,293.897c3.794,0.437,9.339-0.878,12.023,0.668
    C338.803,297.064,329.293,296.477,328.377,293.897z"/>
        <path class="line" d="M109.285,299.909c1.824,2.629,3.167,5.739,6.68,6.68
    c-0.364,7.652,0.779,16.81-0.668,23.379C109.517,323.724,109.975,311.242,109.285,299.909z"/>
        <path class="line" d="M341.736,303.917c-1.147,2.874-9.146,2.414-12.023,1.336
    C331.691,303.21,338.899,302.88,341.736,303.917z"/>
        <path class="line" d="M343.072,303.249c4.453,0,8.906,0,13.359,0
    c-0.271,2.847,0.646,6.881-0.668,8.684c-11.206-0.755-20.742-0.451-32.062,0c-0.163-2.955-1.368-4.866-1.336-8.016
    c1.559,0,3.117,0,4.676,0c2.326-0.323,0.748,3.259,2.672,3.34C334.544,306.299,343.997,309.963,343.072,303.249z"/>
        <path class="line" d="M117.3,305.921c3.45,0.78,10.09-1.629,11.355,1.336
    c-1.41,2.544-9.686,1.215-11.355,1.336C117.3,307.702,117.3,306.812,117.3,305.921z"/>
        <path class="line color white" d="M129.324,311.265c0.738,11.807-0.381,22.399-1.336,34.066
    c-7.636,0.733-4.66-9.145-10.688-10.02c0.18-8.504,1.062-16.305,0.668-25.383C122.174,309.953,126.855,309.503,129.324,311.265z"
        />
        <path class="line" d="M330.381,313.269c3.86,0.593,8.712,0.194,12.023,1.336
    c-1.474,2.979-8.36,0.546-12.023,1.336C330.381,315.05,330.381,314.159,330.381,313.269z"/>
        <path class="line" d="M324.369,314.604c0.287-1.494,3.292-0.271,4.676-0.668
    c-0.89,5.202,15.584,5.202,14.695,0c4.23,0,8.461,0,12.691,0c-0.994,2.569-2.574,4.552-4.676,6.012
    C340.876,320.653,328.893,321.811,324.369,314.604z"/>
        <path class="line" d="M289.635,380.065c4.868,0.629,13.596-0.648,20.039-0.668
    c0.344-21.941-3.73-39.464-4.008-60.785c-6.636,0.711-13.788,0.907-20.707,1.336c5.271-2.746,13.634-2.397,21.375-2.672
    c2.083,20.204,5.777,42.287,4.676,63.457c-6.278,1.515-15.331,0.255-22.711,0.668c-1.627-20.416-2.907-41.179-4.676-61.453
    C288.44,337.174,287.42,360.237,289.635,380.065z"/>
        <path class="line color white" d="M202.132,412.795c-4.134,2.323-8.86,4.055-13.359,6.012
    c-1.042-28.304-7.683-56.487-3.34-84.163c2.833-1.621,5.616-3.291,8.684-4.676C197.167,357.198,199.006,385.64,202.132,412.795z"
        />
        <path class="line" d="M333.053,331.304c4.628,0.938,12.685-1.552,12.691,4.008
    c-1.936,0.984-8.57,0.589-13.359,0.668C332.598,334.411,333.439,333.472,333.053,331.304z"/>
        <path class="line" d="M331.049,331.972c1.096-0.11,1.096,4.117,0,4.008
    C328.091,336.064,330.452,332.501,331.049,331.972z"/>
        <path class="line" d="M346.412,331.972c1.781,0,3.562,0,5.344,0
    c-0.484,2.043,1.152,1.965,0.668,4.008c-1.108-1.119-3.922-0.532-6.012-0.668C346.412,334.198,346.412,333.085,346.412,331.972z"
        />
        <path class="line" d="M353.092,332.64c7.499,4.976,12.54,32.17,2.672,36.07
    C354.885,356.674,355.215,343.43,353.092,332.64z"/>
        <path class="line" d="M120.64,343.327c-2.628,1.379-5.181,2.835-6.68,5.344
    c-2.439-2.682-4.684-5.559-6.012-9.352C112.269,333.407,119.76,334.69,120.64,343.327z"/>
        <path class="line" d="M327.709,335.312c1.163,10.415,1.399,21.756,4.008,30.726
    C326.629,359.344,324.24,344.629,327.709,335.312z"/>
        <path class="line" d="M352.424,337.315c-3.767,3.671-19.926,2.255-22.043,1.336
    C335.104,335.582,345.486,338.171,352.424,337.315z"/>
        <path class="line" d="M331.049,340.655c2.905,0.125,1.216,1.162,1.336,3.34
    C330.398,344.137,330.029,341.613,331.049,340.655z"/>
        <path class="line" d="M333.721,340.655c3.438-0.109,7.257,1.779,11.355,0
    c0.962,0.151,0.232,1.993,1.336,2.004c-1.941,2.418-7.491,0.814-12.691,1.336C333.721,342.882,333.721,341.769,333.721,340.655z"
        />
        <path class="line" d="M347.08,340.655c1.597,0.407,4.846-0.839,5.344,0.668
    c0.95,3.4-3.363,1.535-5.344,2.004C347.08,342.437,347.08,341.546,347.08,340.655z"/>
        <path class="line" d="M108.617,343.995c0.568-0.123,0.63,0.26,0.668,0.668
    c2.351,10.83,13.53,16.148,12.691,30.058c-0.298,4.94-3.056,9.944-3.34,15.363c-0.819,15.63-2.184,32.416-4.676,47.425
    c-2.351-15.721,0.555-35.008,1.336-52.769c0.258-5.88,1.932-12.386,0.668-18.035c-1.618-7.23-10.977-11.41-9.352-20.039
    C107.591,346.086,108.73,345.667,108.617,343.995z"/>
        <path class="line" d="M120.64,343.995c2.955,3.724,0.562,12.796,1.336,18.703
    c-4.126-2.331-5.227-7.687-8.016-11.355C115.267,347.974,119.105,347.136,120.64,343.995z"/>
        <path class="line" d="M331.049,345.331c6.905,0.442,15.582-0.887,21.375,0.668
    c-3.299,4.717-15.862,0.169-21.375,2.672C331.049,347.558,331.049,346.444,331.049,345.331z"/>
        <path class="line color blue" d="M123.98,345.999c1.956-0.174,2.052,1.51,4.008,1.336
    c-1.208,7.029-0.824,15.652-2.004,22.71c2.37,1.527,4.322-0.442,7.348,0.668c-1.136,24.915-1.583,50.519-2.672,75.48
    c-8.811,3.027-9.322-4.469-14.027-7.348C119.035,404.678,123.1,378.718,123.98,345.999z"/>
        <path class="line" d="M333.721,349.339c3.877,0.798,11.007-1.656,12.691,1.335
    c-2.433,2.734-9.633,1.012-12.691,1.336C333.721,351.12,333.721,350.229,333.721,349.339z"/>
        <path class="line" d="M347.748,349.339c1.384,0.397,4.388-0.826,4.676,0.668
    c0.97,3.196-2.793,1.66-4.676,2.003C347.748,351.12,347.748,350.229,347.748,349.339z"/>
        <path class="line" d="M331.717,353.346c6.494,1.298,16.384-0.798,21.375,2.004
    c-4.311,2.657-15.952,1.327-21.375,0.668C331.717,355.127,331.717,354.237,331.717,353.346z"/>
        <path class="line" d="M347.748,358.69c-1.671,2.572-10.602,1.405-13.359,0.668
    C336.06,356.786,344.99,357.953,347.748,358.69z"/>
        <path class="line" d="M353.092,358.69c0.821,2.221-4.516,1.634-4.676,0.668
    C347.594,357.137,352.931,357.724,353.092,358.69z"/>
        <path class="line color white-shadow" d="M440.595,358.022c-2.197,16.505-5.904,31.502-8.016,48.093
    c-2.954-14.413-3.161-31.573-5.344-46.757C431.518,358.742,436.206,358.532,440.595,358.022z"/>
        <path class="line" d="M445.271,358.022c0.49,9.064-3.239,20.57-5.344,31.395
    c-2.151,11.066-3.677,22.497-6.012,32.73c0.3-21.744,6.785-43.089,10.02-64.125C444.38,358.022,444.825,358.022,445.271,358.022z"
        />
        <path class="line" d="M332.385,361.362c7.92,1.35,16.604-2.135,21.375,2.004
    c-5.761,2.606-18.68,1.254-21.375,1.336C332.385,363.588,332.385,362.475,332.385,361.362z"/>
        <path class="line" d="M180.757,362.698c4.469,36.945,6.673,76.155,10.02,114.222
    c-3.79,0.622-11.171-8.432-16.699-10.688c4.282-9.319-2.739-17.646-4.008-24.047c-1.773-8.943,1.385-21.159,2.004-32.73
    c0.802-14.986,1.115-28.058,2.672-42.082C175.084,364.15,180.792,366.296,180.757,362.698z"/>
        <path class="line color white-shadow" d="M146.69,366.038c6.783,1.061,17.264,1.061,24.047,0
    c-0.542,28.404-3.512,54.377-4.676,82.16c-9.517,2.061-20.279,2.877-32.062,2.672c0.648-26.961,1.604-53.614,2.672-80.156
    C142.449,371.593,143.576,367.821,146.69,366.038z"/>
        <path class="line" d="M335.057,366.038c3.126,2.44,13.487-2.354,13.359,3.34
    c2.628,1.07,0.232-2.885,2.004-2.672c1.113,0,2.227,0,3.34,0c0,1.113,0,2.227,0,3.34c-5.789,0-11.578,0-17.367,0
    C335.859,368.797,335.276,367.599,335.057,366.038z"/>
        <path class="line" d="M370.459,380.733c-5.08,3.859-14.139,1.656-22.043,2.004
    c-6.746,0.296-14.263,0.832-20.039,1.336c-2.801,0.244-7.361,2.743-8.684-0.668c1.961-4.233,7.87-2.409,12.023-2.672
    C343.742,379.972,359.327,379.372,370.459,380.733z"/>
        <path class="line color white" d="M371.127,385.409c0.122,6.112,1.506,10.962,2.003,16.699
    c-16.815,0.328-35.017-0.729-50.765,0.668c-1.425-4.364-1.462-10.116-2.004-15.363
    C335.851,385.312,353.452,385.324,371.127,385.409z"/>
        <path class="line" d="M252.229,393.424c4.434,20.077,6.18,46.341,6.68,68.132
    c-15.863,3.062-30.319,7.532-46.09,10.688c-3.887-20.828-4.183-45.246-6.011-68.133
    C221.194,399.796,236.672,396.57,252.229,393.424z M250.225,396.764c-13.688,3.012-26.776,6.623-40.746,9.352
    c1.418,21.069,3.375,41.602,4.675,62.789c14.78-2.365,27.207-7.082,42.082-9.352C254.658,438.197,254.201,415.722,250.225,396.764
    z"/>
        <path class="line color white" d="M256.237,459.553c-14.875,2.27-27.302,6.986-42.082,9.352
    c-1.3-21.188-3.257-41.72-4.675-62.789c13.97-2.729,27.058-6.34,40.746-9.352C254.201,415.722,254.658,438.197,256.237,459.553z"
        />
        <path class="line" d="M369.791,408.119c2.278,13.309,3.907,30.825,4.007,44.086
    c-12.308,3.5-30.195,1.421-45.421,2.004c-0.838-14.081-3.026-30.371-2.004-44.086
    C338.754,406.513,355.117,407.907,369.791,408.119z M328.377,411.459c0.962,13.288,1.331,27.168,2.672,40.078
    c14.008,0.426,26.598-0.566,40.078-0.668c0.159-14.632-3.084-25.862-3.34-40.078C353.99,410.354,341.661,411.385,328.377,411.459z
    "/>
        <path class="line color white" d="M397.845,410.123c0.702,13.326,1.32,26.734,2.672,39.41
    c-5.121,0-10.242,0-15.363,0c-1.485-12.764-2.656-25.844-3.34-39.41C387.157,410.123,392.501,410.123,397.845,410.123z"/>
        <path class="line" d="M314.35,410.791c2.032,13.568,3.311,31.403,3.34,44.754
    c-17.018,2.353-34.712,4.029-52.101,6.012c-3.577-12.051-2.774-31.903-2.672-45.422
    C280.049,414.343,295.862,411.229,314.35,410.791z M264.92,418.807c1.235,12.793,0.84,27.215,2.004,40.078
    c15.956-1.856,30.619-5.006,48.093-5.344c-0.811-11.237-0.249-29.569-4.008-40.078C295.677,415.274,280.49,417.232,264.92,418.807
    z"/>
        <path class="line color white" d="M367.787,410.791c0.256,14.216,3.499,25.446,3.34,40.078
    c-13.48,0.102-26.07,1.094-40.078,0.668c-1.341-12.91-1.71-26.79-2.672-40.078C341.661,411.385,353.99,410.354,367.787,410.791z"
        />
        <path class="line color white" d="M402.521,411.459c3.517-0.399,5.739,0.496,8.684,0.668
    c-0.376,13.958,2.38,24.785,2.672,38.074c-2.449,0-4.898,0-7.348,0C404.541,437.938,403.836,424.395,402.521,411.459z"/>
        <path class="line color white" d="M415.88,412.795c2.062,0.165,3.776,0.678,5.344,1.336
    c-1.356,12.737,2.371,27.43,0,36.738c-4.856-0.609-3.083-7.307-3.34-10.688c-0.608-8.025-1.874-17.78-2.004-25.383
    C415.88,414.131,415.88,413.463,415.88,412.795z"/>
        <path class="line color white" d="M311.01,413.463c3.759,10.509,3.197,28.841,4.008,40.078
    c-17.475,0.338-32.138,3.487-48.093,5.344c-1.164-12.863-0.769-27.285-2.004-40.078
    C280.49,417.232,295.677,415.274,311.01,413.463z M269.596,424.818c-1.124,9.396-3.118,21.077,0,29.391
    c-0.505-10.174,1.91-18.358,0.668-27.387c6.24-1.553,12.605-2.98,20.039-3.34c0.584,9.213-1.343,20.937,1.336,28.055
    c0.769-9.448,2.307-21.595-1.336-29.391C283.341,422.978,275.012,422.441,269.596,424.818z"/>
        <path class="line" d="M399.849,416.135c1.903,7.674,1.663,23.273,3.34,33.398
    C399.978,440.498,400.428,427.802,399.849,416.135z"/>
        <path class="line" d="M429.239,417.471c3.451,10.354,2.629,24.98,4.676,36.738
    C428.134,446.235,426.376,430.013,429.239,417.471z"/>
        <path class="line" d="M290.303,422.146c3.643,7.796,2.105,19.942,1.336,29.391
    c-2.679-7.118-0.751-18.842-1.336-28.055c-7.434,0.359-13.798,1.787-20.039,3.34c1.242,9.028-1.173,17.213-0.668,27.387
    c-3.118-8.313-1.124-19.994,0-29.391C275.012,422.441,283.341,422.978,290.303,422.146z"/>
        <path class="line color white" d="M109.953,424.818c2.665,4.585-1.106,8.705,0,12.023
    c1.771,5.313,11.483,5.673,12.691,12.023c3.626,0.509,5.176-1.058,8.684-0.668c1.816,0.41,0.955,3.498,2.004,4.676
    c8.879-0.879,35.662,3.133,36.07-6.68c1.127,2.436,2.549,4.576,2.672,8.016c-9.575,1.91-21.611,1.293-32.062,2.004
    c-3.003,0.204-5.912,1.581-8.684,1.336c-7.58-0.67-23.078-10.505-24.715-17.367C105.293,434.648,107.407,429.828,109.953,424.818z
    "/>
        <path class="line color white" d="M109.953,448.197c4.968,4.606,11.084,8.063,18.035,10.688
    c0.415,14.22-0.54,27.069-0.668,40.746c-2.687-3.726-1.468-7.579-2.672-11.355C120.292,474.603,104.832,466.703,109.953,448.197z"
        />
        <path class="line color white" d="M168.733,509.65c-2.005,0.889-5.11,0.679-8.016,0.668
    c2.085-10.606,3.44-21.942,3.34-34.734c-6.94-0.645-17.272,0.939-24.714,2.004c-3.193,9.053,0.481,24.973-3.34,33.398
    c-8.615-1.706-6.012-13.991-6.012-23.379c0-10.159-0.362-21.27,0.668-28.723c14.282,0.031,28.439-0.061,40.746-2.004
    C171.656,472.941,170.086,492.967,168.733,509.65z"/>
        <path class="line color gray" d="M406.528,458.885c-4.123,10.349-8.452,20.492-13.359,30.059
    c-7.638,1.045-16.66,0.706-24.714,1.336c2.127-10.342,4.354-20.583,6.011-31.395C386.186,459.328,395.967,457.878,406.528,458.885
    z"/>
        <path class="line color gray" d="M361.775,459.553c-1.938,10.309-3.785,20.707-4.676,32.062
    c-7.132-0.452-12.726,0.634-19.371,0.668c0-10.688,0-21.375,0-32.062C346.303,460.557,353.021,459.037,361.775,459.553z"/>
        <path class="line color gray" d="M371.795,459.553c-2.378,11.649-4.956,23.099-6.68,35.402
    c-2.004,0-4.008,0-6.012,0c1.205-11.932,2.329-23.944,4.008-35.402C366.006,459.553,368.9,459.553,371.795,459.553z"/>
        <path class="line" d="M411.872,459.553c-4.949,12.641-10.839,24.34-15.363,37.406
    c-3.762-5.018,1.241-12.004,4.676-20.039c2.85-6.666,5.389-11.819,6.68-17.367C409.2,459.553,410.536,459.553,411.872,459.553z"/>
        <path class="line" d="M416.548,460.889c-4.017,10.901-8.825,21.011-14.695,30.059
    c3.404-10.624,7.446-20.609,11.355-30.727C414.757,460.008,415.772,460.328,416.548,460.889z"/>
        <path class="line color gray" d="M336.393,460.889c-0.887,10.608-1.229,24.854,0,35.402
    c-2.672,0-5.344,0-8.016,0c0.131-12.378-0.528-23.964-2.004-34.734C329.195,460.816,332.729,460.787,336.393,460.889z"/>
        <path class="line" d="M417.884,460.889c1.198-0.085,1.409,0.817,2.672,0.668
    c-4.161,11.201-10.246,20.48-14.695,31.395C407.424,482.489,415.208,472.464,417.884,460.889z"/>
        <path class="line color gray" d="M325.705,461.557c0,10.465,0,20.93,0,31.395
    c-12.705,0.208-23.124,2.703-36.07,2.672c-2.202-10.045-3.966-20.526-7.348-29.391
    C295.236,463.149,311.068,462.95,325.705,461.557z"/>
        <path class="line" d="M421.892,461.557c0.537,0.354,1.084,0.697,2.004,0.668
    c-5.666,11.924-8.81,26.37-17.367,35.402C410.123,484.077,418.032,474.842,421.892,461.557z"/>
        <path class="line" d="M425.231,462.893c4.018-0.232,5.334,2.236,9.352,2.004
    c-3.678,2.779-7.233,5.68-12.023,7.348C423.164,468.841,424.109,465.778,425.231,462.893z"/>
        <path class="line color gray" d="M280.283,465.564c4.464,9.786,5.41,23.09,8.684,34.066
    c-2.944,0.172-5.167,1.067-8.684,0.668c-2.054-11.751-5.51-22.1-8.016-33.398C274.786,466.302,277.926,466.324,280.283,465.564z"
        />
        <path class="line color gray" d="M278.279,496.291c-1.433,2.353-6.141,1.429-8.683,2.672
    c-3.227-10.355-5.667-21.497-11.355-29.391c2.658-2.018,8.426-0.926,11.355-2.672C274.538,474.65,274.078,487.801,278.279,496.291
    z"/>
        <path class="line color white" d="M174.077,467.568c5.785,5.57,13.14,9.571,17.367,16.699
    c-9.678,2.123-15.151,8.45-18.035,17.367C171.571,490.888,173.442,478.068,174.077,467.568z"/>
        <path class="line" d="M111.289,470.24c2.577,3.212,3.715,7.862,6.68,10.688
    c-3.112,4.903-6.683,9.349-8.684,15.363c-1.847-4.661-5.911-9.099-5.344-14.027C104.479,477.59,110.612,474.891,111.289,470.24z"
        />
        <path class="line color gray" d="M427.903,471.576c-0.629,8.058-6.797,16.357-9.352,24.715
    c-1.757,0.691-4.099,0.799-6.68,0.668C417.199,488.48,417.604,475.08,427.903,471.576z"/>
        <path class="line color gray" d="M241.542,472.244c-9.986,7.158-19.99,14.299-29.391,22.043
    c-5.788-1.782-11.974-3.167-17.367-5.344C206.783,479.79,223.215,475.069,241.542,472.244z"/>
        <path class="line" d="M158.714,476.92c0.891,0,1.781,0,2.672,0
    c0.204,4.211-0.105,7.91-0.668,11.355C159.565,484.975,159.334,480.753,158.714,476.92z"/>
        <path class="line color white-shadow" d="M158.046,477.588c0.32,15.072,1.728,27.771,2.004,41.413
    c-2.74,0.6-6.154,0.526-8.016,2.004c1.267,5.859,0.341,13.909,1.336,20.039c-1.763,1.354-5.528,0.707-7.348,2.004
    c-6.883-18.636-6.447-38.686-5.343-63.456C146.948,479.403,151.464,477.463,158.046,477.588z"/>
        <path class="line" d="M118.636,482.932c2.16,1.18,2.097,4.583,4.676,5.344
    c-1.886,1.676-7.482-0.357-8.684,2.004C113.539,488.052,117.541,485.193,118.636,482.932z"/>
        <path class="line color white" d="M190.108,486.271c3.143,5.985,10.131,8.127,18.035,9.352
    c-10.078,2.836-22.117,3.711-33.398,5.344C178.154,494.355,182.425,488.607,190.108,486.271z"/>
        <path class="line color white-shadow" d="M123.312,491.615c-0.357,6.368,2.539,9.484,3.34,14.695
    c-6.32-0.086-10.774,1.694-12.023,6.679C107.068,505.508,108.318,485.229,123.312,491.615z"/>
        <path class="line" d="M392.501,492.283c-0.482,2.041,0.684,2.434,0.668,4.008
    c-7.915-1.214-18.733,0.476-25.382-2.004c0-0.668,0-1.336,0-2.004C374.812,491.292,385.846,492.529,392.501,492.283z"/>
        <path class="line" d="M400.517,492.283c3.644-0.081,3.446,3.679,5.344,5.344
    c-1.227,1.611-3.938-0.916-6.68,0C397.829,496.078,400.778,494.782,400.517,492.283z"/>
        <path class="line" d="M357.1,494.287c-3.972,2.492-15.121,1.348-19.371,1.336
    c0.475-3.592,6.799-1.886,10.688-2.004C351.645,493.52,356.139,491.22,357.1,494.287z"/>
        <path class="line" d="M326.373,495.623c-9.759,1.776-27.029,4.298-36.07,2.672
    c10.173-2.741,24.3-1.528,34.734-4.008C325.632,494.583,326.231,494.873,326.373,495.623z"/>
        <path class="line color white" d="M208.144,497.627c5.062,21.211,2.656,49.89,7.347,71.472
    c0.177,2.181-2.592,1.416-2.672,3.34c-0.29,3.626,3.23,4.722,1.336,8.016c-9.489-10.55-19.002-21.075-33.398-26.719
    c-4.743-13.737-3.339-33.622-14.695-40.746c4.646-0.476,5.625-4.617,6.012-9.351C184.505,502.042,196.789,500.3,208.144,497.627z"
        />
        <path class="line" d="M278.947,498.963c0,0.668,0,1.336,0,2.004
    c-3.373-0.896-6.419,2.003-8.683,0C271.149,498.715,277.609,498.542,278.947,498.963z"/>
        <path class="line color white-shadow" d="M406.528,499.631c0.061,11.193-0.424,21.842-2.004,31.394
    c-2.884-5.131-2.54-13.49-5.344-18.703c-3.785,0-7.57,0-11.355,0c0-1.113,0-2.226,0-3.339c3.482-2.313,7.776-6.008,11.355-8.016
    c0.292-0.164-0.288-1.829,0-2.004C401.37,497.633,404.291,499.367,406.528,499.631z"/>
        <path class="line color gray" d="M343.74,525.681c-1.225-2.582,3.83-4.613,6.012-6.012
    c-5.631-5.396-4.469-19.313,8.016-16.03C368.36,515.024,350.878,521.521,343.74,525.681z"/>
        <path class="line" d="M345.744,504.307c0.847,1.078-3.852,11.317,1.336,14.026
    c-1.054,1.185-2.39,4.094-4.008,2.672C343.467,514.943,341.581,506.6,345.744,504.307z"/>
        <path class="line color gray" d="M302.326,507.646c4.796-4.394,14.396-3.1,15.363,2.672
    C319.507,521.168,300.911,520.63,302.326,507.646z"/>
        <path class="line color white" d="M407.864,505.643c4.279,2.4,7.465,5.895,12.023,8.015
    c6.887,18.784,16.786,41.279,25.383,61.453c2.909,6.827,7.757,15.06,8.016,20.707c0.273,5.988-4.215,9.076-6.68,13.359
    c-18.493,0.21-34.889,2.518-53.438,2.672c-0.145-7.648-2.289-13.297-4.676-18.703c7.685-1.667,13.83-4.873,21.375-6.68
    c-0.292,2.296,0.264,3.744,0.668,5.344c5.792,0.024,9.735,0.926,14.695-0.668c1.491-3.647-0.773-7.709-1.336-11.355
    c5.596-3.603,5.943-12.118-2.004-13.359c0.823-8.338,9.952-17.148,2.672-25.383c-1.339-0.272-4.954-1.654-6.012,0
    c-3.874-7.258-3.771-18.494-6.012-27.387C411.994,509.974,406.366,511.371,407.864,505.643z"/>
        <path class="line color white-shadow" d="M127.988,507.646c9.176,10.053-11.388,16.286-12.691,7.347
    C114.504,509.562,121.468,507.448,127.988,507.646z"/>
        <path class="line color gray" d="M300.322,508.982c0.915,6.21,3.895,10.354,10.02,11.354
    c-1.42,2.588-4.824,3.191-6.68,5.344C294.115,524.243,290.583,512.338,300.322,508.982z"/>
        <path class="line color white-shadow" d="M385.821,509.65c0.613,3.952-3.513,3.166-6.012,4.007
    c0.271,21.423-1.663,40.642-2.672,60.785c-4.344-2.489-4.704-7.079-7.347-10.688c-6.741-9.202-19.229-13.44-28.055-20.707
    c-2.262,0.188-3.836,1.062-6.68,0.668c1.765-6.028,7.013-8.572,7.348-16.031C355.456,520.697,372.444,514.086,385.821,509.65z"/>
        <path class="line color white" d="M407.864,511.653c2.057-0.497,1.284,1.834,3.34,1.336
    c-0.295,8.979,2.487,14.881,2.672,23.379c-3.117,0-6.234,0-9.352,0c-1.309-4.078,0.997-3.651,2.672-6.012
    C407.029,523.732,408.373,518.619,407.864,511.653z"/>
        <path class="line" d="M131.996,512.321c1.787,0.663,3.522,1.377,6.012,1.336
    c-0.473,2.478,1.141,2.867,0.668,5.344C136.553,516.67,132.923,515.847,131.996,512.321z"/>
        <path class="line" d="M161.386,512.321c6.139,0.096,7.338,5.131,10.02,8.684
    c-5.002,0.44-11.537,2.579-16.699,0.668c1.587-1.085,4.046-1.297,6.012-2.004C161.517,517.797,161.453,515.061,161.386,512.321z"
        />
        <path class="line color white" d="M398.513,514.325c0.422,7.396,2.449,15.465,4.008,24.047
    c1.438,7.911,4.725,17.89,3.34,24.047c-1.653,7.354-10.372,9.462-14.695,15.363c-3.768-20.056-5.562-42.087-8.016-63.457
    C389.438,514.354,392.725,513.53,398.513,514.325z"/>
        <path class="line" d="M131.328,514.993c3.294,1.718,7.708,5.496,7.348,8.684
    c-6.507,0.645-10.081,0.791-13.359-2.672C127.346,519.027,131.228,518.901,131.328,514.993z"/>
        <path class="line color white" d="M381.146,514.993c2.576,21.249,4.207,43.442,7.348,64.125
    c-2.976-0.082-4.141,1.647-6.68,2.004c-4.725-5.377-3.073-14.871-2.672-23.379C379.75,544.886,381.964,527.716,381.146,514.993z"
        />
        <path class="line color gray" d="M291.639,515.661c2.086,4.595,3.656,9.704,8.684,11.355
    c-1.44,2.345-5.125,2.445-6.68,4.676c-3.82-2.414-7.495-4.973-8.016-10.688C286.661,518.254,290.056,517.863,291.639,515.661z"/>
        <path class="line" d="M316.354,518.333c5.346,13.247-9.804,35.641-14.695,16.699
    c3.179-3.277,7.541-5.372,10.688-8.684C311.019,521.014,315.355,521.343,316.354,518.333z"/>
        <path class="line color gray" d="M283.623,522.341c1.625,4.388,4.651,7.373,6.68,11.355
    C281.574,539.414,275.917,526.032,283.623,522.341z"/>
        <path class="line" d="M154.038,523.009c2.94,5.966,1.773,16.04,4.008,22.711
    C152.344,542.516,155.217,530.736,154.038,523.009z"/>
        <path class="line color white" d="M172.073,523.009c1.689,10.557,4.596,19.896,6.68,30.059
    c-4.392-1.843-11.192-1.276-17.367-1.336c-3.513-7.619-3.771-18.494-5.344-28.055
    C162.102,524.171,166.407,522.909,172.073,523.009z"/>
        <path class="line" d="M309.674,523.677c0.5,4.518-5.685,8.114-11.355,8.684
    C300.743,528.105,306.57,527.253,309.674,523.677z"/>
        <path class="line color white" d="M192.78,599.157c0.662-0.924-1.983-4.223-3.34-5.344
    c5.663,4.035,20.407,0.65,22.71,10.02c-28.268,5.13-59.639,7.157-88.171,12.023c2.681-29.402,6.639-61.02,7.348-90.176
    c3.117,0,6.234,0,9.352,0c4.682,27.158,9.231,54.449,14.695,80.824c4.014-1.331,10.582-0.105,13.359-2.672
    c-0.682-3.771-1.888-7.019-2.004-11.355c4.119-3.451,10.653-4.487,18.703-4.008C186.619,593.295,189.795,596.13,192.78,599.157z"
        />
        <path class="line color white-shadow" d="M405.192,537.704c2.182,2.05,9.551-1.089,10.688,2.004
    c-0.967,3.709-5.322,4.029-6.68,7.348c0.385,3.907,2.427,10.152-1.336,13.359C406.572,553.247,405.767,545.592,405.192,537.704z"
        />
        <path class="line" d="M423.896,543.716c2.15,19.11-11.486,28.117-26.719,32.062
    c7.049-8.33,17.876-16.392,17.367-30.059c-1.438,2.124-0.44,6.685-3.34,7.348C407.799,545.059,417.773,540.052,423.896,543.716z"
        />
        <path class="line color white-shadow" d="M160.05,552.399c-6.291,0.482-12.584,9.937-5.344,14.027
    c2.692,0.021,5.152-0.191,6.012-2.004c1.342,4.67,1.156,10.867,2.672,15.363c-1.777,4.012-6.542,5.036-8.016,9.352
    c1.114,3.876,4.833,7.644,10.02,5.344c-0.195,3.535,1.159,5.521,1.336,8.684c-2.86,0.925-6.093,1.478-10.02,1.336
    c-3.159-20.221-7.515-39.242-10.688-59.449C153.535,541.239,157.555,547.392,160.05,552.399z"/>
        <path class="line color white" d="M335.725,544.384c14.422,1.387,19.488,12.129,30.059,17.367
    c-4.907,1.55-13.067-0.152-17.367,2.004c-5.15-2.643-8.711-6.875-14.027-9.352C335.137,552.195,334.458,547.671,335.725,544.384z"
        />
        <path class="line color white" d="M309.006,552.399c9.564-1.229,12.682,8.308,20.039,11.355
    c-4.852,1.129-12.28,2.981-16.031,2.004c-2.809-0.732-2.582-2.695-4.676-4.676c-5.047-4.774-12.729-9.384-17.367-12.691
    C298.218,544.209,305.901,546.312,309.006,552.399z"/>
        <path class="line color white" d="M288.299,548.392c7.406,6.621,16.051,12.004,22.043,20.039
    c-6.128,29.273-8.437,62.368-14.027,92.179c-15.302-13.865-31.693-26.643-46.757-40.745
    C262.606,596.176,277.262,574.093,288.299,548.392z"/>
        <path class="line" d="M209.479,578.45c-3.396,0.933-8.443-2.234-13.359-2.004
    c-8.445-6.699-15.506-17.966-30.059-16.031c-3.264,0.434-6.959,5.307-10.02,4.676c-3.464-0.714-4.565-4.277-2.004-8.016
    c4.592-6.701,21.22-3.988,28.723-0.668C194.625,561.659,200.052,569.386,209.479,578.45z"/>
        <path class="line color gray" d="M334.389,555.739c4.086,3.039,7.795,6.454,12.023,9.352
    c0.186,5.826,1.534,10.489,2.004,16.031c-4.533-0.08-7.75,1.157-12.691,0.668C336.131,571.297,332.745,566.027,334.389,555.739z"
        />
        <path class="line color white" d="M162.722,562.419c8.234-0.886,12.675,2.021,18.035,4.008
    c0.947,2.838,1.252,6.318,2.004,9.352c-5.917,1.208-12.065,2.185-17.367,4.008C164.757,574.112,162.312,566.941,162.722,562.419z"
        />
        <path class="line color white" d="M367.787,564.423c14.519,28.676,25.64,60.751,38.741,90.843
    c-15.234,0.352-28.886,2.285-44.085,2.672c-4.912-30.713-9.582-61.668-14.027-92.847
    C355.075,565.071,362.043,565.359,367.787,564.423z"/>
        <path class="line" d="M419.888,565.091c0.906,0.207,0.554,1.673,0.668,2.672
    c-1.888-0.552-1.73,0.941-3.34,0.668C417.668,566.879,419.436,566.643,419.888,565.091z"/>
        <path class="line color white" d="M331.717,567.095c1.189,5.885,1.021,16.11,4.676,17.367
    c2.805,26.141,8.811,49.079,12.023,74.812c-17.029,1.007-34.209,1.861-50.098,4.008c5.153-31.14,9.005-63.58,13.359-95.519
    C318.855,568.039,325.241,567.521,331.717,567.095z"/>
        <path class="line" d="M183.429,568.431c3.194,1.927,5.876,4.366,8.684,6.68
    c-1.362,1.533-5.547,0.242-8.016,0.668C184.612,572.591,183.052,571.479,183.429,568.431z"/>
        <path class="line" d="M427.235,571.103c-2.033,7.579-10.8,9.349-17.367,12.023
    c-6.688,2.725-13.952,6.287-21.375,7.348c-1.975-2.188-4.941-6.424-4.676-8.684c7.675-1.13,14.771-4.648,22.043-7.348
    C412.191,572.093,420.205,566.357,427.235,571.103z"/>
        <path class="line" d="M158.046,592.478c-1.922-9.792,11.196-13.637,22.043-14.695
    c12.756-1.245,20.864,1.14,32.062,4.008c5.022,1.286,14.822,3.741,14.027,8.684c-1.118,6.948-28.902-3.357-36.07-4.008
    c-7.391-0.671-13.486-0.269-18.035,1.336C166.185,589.878,165.61,595.7,158.046,592.478z"/>
        <path class="line color white-shadow" d="M423.896,589.806c-4.008,0-8.016,0-12.023,0
    c-0.056-1.058,0.321-2.548-0.668-2.672c1.45-4.34,7.621-3.957,10.02-7.348C424.023,581.217,423.597,585.874,423.896,589.806z"/>
        <path class="line color white-shadow" d="M349.752,583.794c2.269,26.009,5.104,51.45,10.688,74.144
    c-2.715,1.07-7.19,0.38-10.02,1.336c-3.937-25.453-6.654-52.127-13.359-74.812C340.095,583.333,347.563,583.6,349.752,583.794z"/>
        <path class="line" d="M186.769,589.138c6.659-0.419,15.642,2.612,22.711,4.008
    C203.102,599.602,191.249,592.971,186.769,589.138z"/>
        <path class="line color white" d="M210.815,607.173c3.162,3.096-2.853,8.165-2.003,13.359
    c-27.36,2.698-53.671,6.445-80.156,10.02c-1.335-4.01-2.867-7.82-3.34-12.691C154.239,614.721,182.648,611.068,210.815,607.173z"
        />
        <path class="line" d="M421.224,612.517c-2.438,9.586-13.589,10.458-25.383,10.688
    c-1.05-2.958-2.637-5.379-2.672-9.352C401.739,612.625,412.225,613.313,421.224,612.517z"/>
        <path class="line" d="M162.054,628.548c1.688,1.302-0.369,4.484-0.668,6.011
    c-6.653,2.254-14.093,3.72-23.378,3.34c-1.407-1.485,0.704-3.221,0-6.011C146.068,630.819,154.735,630.357,162.054,628.548z"/>
        <path class="line" d="M134.667,632.556c0.668,0,1.336,0,2.004,0
    c0.482,2.041-0.683,2.434-0.668,4.007C133.823,635.597,134.322,635.071,134.667,632.556z"/>
        <path class="line" d="M352.424,677.977c2.696,0.981-6.64,7.961-11.355,8.684
    c-7.361,1.128-14.968-2.492-19.371-5.344C330.294,678.559,343.242,680.15,352.424,677.977z"/>
        <path class="line color silver" d="M396.509,158.969c1.266-1.331,2.287,8.731,2.672,12.691
    c1.786,0.886,3.318,2.026,5.344,2.672c1.692-1.737-0.938-4.818,0-8.016c1.491,3.407,2.368,7.43,2.672,12.023
    c-21.816-17.199-59.631-19.037-95.519-17.367c-57.169,2.66-111.939,9.802-138.937,40.746c0.92-5.772,6.785-10.116,11.355-13.359
    c15.006-10.65,35.313-17.134,56.109-22.043c-0.665-9.223-0.825-24.491-0.668-36.738c-23.381,0.982-40.978,10.724-55.441,21.375
    c-1.534,1.13-3.636,3.309-5.344,2.672c18.421-47.076,50.515-83.917,114.222-83.495c-8.222,0.907-14.758,3.499-17.367,10.02
    c5.386,11.981,8.401,26.333,11.355,40.746c-9.943-0.369-18.154,0.995-25.382,3.34c-0.314,11.154,1.106,25.946,2.004,38.074
    c9.587-0.209,16.576-3.018,26.718-2.672c-0.329-12.584-1.471-24.356-2.672-36.07c1.379,1.96,1.863,4.817,2.672,7.348
    c3.627,0.878,11.154-0.071,16.031,1.336c3.091-1.26-1.008,0.82-0.668,2.672c1.356,7.327,2.267,15.1,3.34,22.71
    c13.446,1.711,30.943,2.879,44.754,2.004c2.089-9.486-2.021-18.427-3.34-26.718c7.405,1.21,6.375-4.992,11.355-4.676
    c4.759-5.106,1.73-13.992-2.672-17.367c-0.271-8.858-5.528-12.73-8.016-19.371c17.222,11.946,31.967,26.369,42.081,45.421
    c-4.972,0.305-4.72-6.133-9.352-7.348c-2.728-0.715-6.135,2.014-9.352,2.004c-5.594-0.018-7.532-3.255-11.354-2.004
    c-20.199,6.612,12.06,51.923,21.374,24.046c2.579,1.875,0.536,8.37,2.004,11.355c2.614,2.507,6.374,3.869,10.688,4.676
    C398.563,166.877,396.859,162.161,396.509,158.969z M247.553,126.907c-0.898,11.303,0.359,25.795,1.336,37.406
    c4.27,0.263,7.036-0.98,10.688-1.336c0.477-11.099-0.416-26.188-1.336-38.074C253.753,124.646,250.802,125.925,247.553,126.907z
     M290.971,134.922c0.823,8.083,1.41,16.403,2.672,24.046c4.232,0.973,8.898,0.544,12.691-0.668
    c-0.002-8.904-0.989-16.823-2.004-24.714C300.604,132.268,293.113,132.48,290.971,134.922z"/>
        <path class="line color blue" d="M357.768,120.227c-20.192-0.9-42.904-1.396-60.117,0
    c-2.092-18.614-6.971-34.442-15.363-46.757c15.331-2.884,37.928-2.712,54.105-0.668c3.525,6.049,6.721,12.428,9.352,19.371
    c-4.854-6.882-12.537-16.26-23.379-18.035c-13.935-2.282-27.838,2.852-28.055,15.363c-0.374,21.609,40.92,40.546,53.438,16.699
    c-0.308-3.255,0.699-7.824-0.668-10.02C350.667,101.502,354.788,112.071,357.768,120.227z"/>
        <path class="line" d="M355.764,107.536c-4.46-4.892-5.364-13.339-9.352-18.703
    c1.734-1.046,3.762,4.851,5.344,8.015C353.611,100.562,356.683,104.601,355.764,107.536z"/>
        <path class="line color white" d="M404.524,219.086c1.775-0.417,5.119,3.326,7.348,4.676
    c1.451,26.773,4.842,53.483,7.348,80.155c2.493,26.525,6.454,53.296,6.012,78.82c-6.607-2.473-5.471-11.418-6.012-16.699
    c-2.009-19.617-4.442-39.069-6.68-59.449c-3.03-27.604-4.188-55.94-6.68-82.159C405.714,222.889,405.262,220.224,404.524,219.086z
    "/>
        <path class="line" d="M356.432,292.562c0-0.891,0-1.781,0-2.672
    c2.6,9.971,5.495,27.761-3.34,32.73c-11.822,1.122-26.052,2.422-30.727-4.676c-3.529-5.359-6.49-24.528-3.34-31.395
    c5.426-11.825,32.428-10.774,37.406,2.672c-6.857-11.659-31.507-13.341-36.07-1.336c-2.763,7.269,0.024,20.532,2.672,26.051
    c3.38,7.046,15.85,11.715,28.055,8.016C360.916,318.973,358.253,304.01,356.432,292.562z"/>
        <path class="line color white" d="M393.169,197.711c8.323,4.813,17.36,8.914,18.035,21.375
    c-1.129,2.234-5.753-2.984-8.684-3.34c2.026,58.981,10.478,111.537,16.699,166.323c1.065,2.943,5.711,2.304,8.016,4.008
    c-0.654,8.988,3.665,18.415,2.672,27.386c-0.346,3.124-2.683,5.849-3.34,8.684c-3.607,15.565,2.187,26.825,8.016,39.41
    c-3.582,0.627-8.306-2.191-13.359-3.34c-13.995-3.181-31.749-2.781-49.429-2.004c-55.873,2.456-112.711,6.943-158.308,18.703
    c-6.031,3.801-13.227,9.882-19.371,11.355c-0.768-22.611-3.988-42.77-4.676-65.461c5.357-1.99,11.502-3.193,14.695-7.348
    c-1.404-29.768-4.838-57.505-7.348-86.167c-3.687-1.741-8.141,4.647-10.688,4.008c-0.244-4.252,1.188-6.828,0.668-11.355
    c12.72-14.817,20.79-71.607,0-86.835c-3.335-2.442-7.421-1.25-9.352-6.012c17.188-13.984,40.869-21.474,64.792-28.722
    c2.239,27.819,5.136,54.98,8.684,81.491c43.353-8.425,103.875-11.664,150.292-3.339
    C401.848,252.134,398.205,220.827,393.169,197.711z M206.14,225.097c2.751,56.253,9.018,114.777,14.695,170.331
    c9.694-0.325,15.705-4.334,24.715-5.344c-4.656-49.483-9.214-104.956-13.359-154.968c-0.675-8.145-0.037-16.24-3.34-20.039
    C220.333,217.47,211.786,219.834,206.14,225.097z M306.334,276.531c4.124,43.079,8.152,86.253,13.359,128.249
    c17.148,0.985,37.802,0.048,55.44-0.668c-3.214-44.211-8.38-86.47-13.358-128.917
    C346.144,272.273,320.224,271.613,306.334,276.531z M367.119,276.531c-0.84,0.274-1.365,0.861-1.336,2.004
    c-0.671-0.002-0.795,0.541-1.336,0.667c4.176,33.007,7.062,67.305,12.022,99.527c12.517-0.246,25.411,2.612,36.07,2.004
    c-0.503-33.567-6.097-67.822-10.02-100.194C391.79,278.133,380.427,276.359,367.119,276.531z M251.561,283.21
    c0.716,12.198,1.868,23.96,4.008,34.734c17.066-1.636,33.272-4.133,50.097-6.012c0.247-12.938-0.873-24.51-3.34-34.734
    C284.157,277.955,267.466,280.19,251.561,283.21z M283.623,319.948c1.769,20.274,3.049,41.037,4.676,61.453
    c7.38-0.413,16.433,0.847,22.711-0.668c1.102-21.17-2.593-43.253-4.676-63.457c-7.741,0.274-16.104-0.074-21.375,2.672
    c6.919-0.429,14.071-0.625,20.707-1.336c0.277,21.32,4.352,38.843,4.008,60.785c-6.443,0.02-15.171,1.297-20.039,0.668
    C287.42,360.237,288.44,337.174,283.623,319.948z M206.808,404.111c1.829,22.887,2.125,47.305,6.011,68.133
    c15.771-3.155,30.227-7.625,46.09-10.688c-0.5-21.791-2.246-48.056-6.68-68.132C236.672,396.57,221.194,399.796,206.808,404.111z
     M326.373,410.123c-1.022,13.715,1.166,30.005,2.004,44.086c15.226-0.583,33.113,1.496,45.421-2.004
    c-0.1-13.261-1.729-30.777-4.007-44.086C355.117,407.907,338.754,406.513,326.373,410.123z M379.142,409.455
    c1.36,14.449,0.591,31.027,4.676,42.75c12.547-0.376,20.051,0.306,31.395,0.668c0.385-1.175-0.808-3.925,0.668-4.008
    c0.007,1.774-0.252,3.814,0.668,4.676c2.672,0,5.344,0,8.016,0c-1.21-13.04-1.758-26.742-2.672-40.078
    c-2.312-1.25-4.731-2.394-8.684-2.004c-0.72,8.962,2.289,17.745,0.668,25.383c-0.36-8.768-1.244-17.014-2.004-25.383
    c-3.458-1.936-13.603-3.063-12.691,3.34C400.947,404.883,385.063,409.507,379.142,409.455z M262.917,416.135
    c-0.103,13.519-0.905,33.371,2.672,45.422c17.389-1.982,35.083-3.659,52.101-6.012c-0.029-13.351-1.308-31.186-3.34-44.754
    C295.862,411.229,280.049,414.343,262.917,416.135z"/>
        <path class="line" d="M353.092,372.049c3.698-1.2,6.842-2.955,8.684-6.012
    c0.128-12.295,1.763-27.248-5.344-33.398c-4.168-3.607-17.088-4.797-24.715-2.004c-14.331,5.248-6.852,37.645,3.34,40.746
    c5.947,1.81,11.4-1.24,17.367,1.336c-13.544,0.211-23.918,2.003-28.055-9.352c-3.151-8.648-3.287-26.365,1.336-31.394
    c5.99-6.518,31.787-5.536,36.07,4.676c3.077,7.338,1.505,16.149,2.672,26.718C361.398,366.997,360.522,372.801,353.092,372.049z"
        />
        <path class="line" d="M399.181,414.799c-0.911-6.403,9.233-5.275,12.691-3.34
    c0.76,8.369,1.644,16.615,2.004,25.383c1.621-7.638-1.388-16.421-0.668-25.383c3.952-0.39,6.372,0.754,8.684,2.004
    c0.914,13.336,1.462,27.038,2.672,40.078c-2.672,0-5.344,0-8.016,0c-0.92-0.861-0.661-2.901-0.668-4.676
    c-1.476,0.083-0.283,2.833-0.668,4.008c-11.344-0.362-18.848-1.044-31.395-0.668c-4.085-11.723-3.315-28.301-4.676-42.75
    C385.063,409.507,400.947,404.883,399.181,414.799z M381.813,410.123c0.684,13.566,1.854,26.646,3.34,39.41
    c5.121,0,10.242,0,15.363,0c-1.352-12.676-1.97-26.084-2.672-39.41C392.501,410.123,387.157,410.123,381.813,410.123z
     M406.528,450.201c2.449,0,4.898,0,7.348,0c-0.292-13.289-3.048-24.116-2.672-38.074c-2.944-0.172-5.167-1.067-8.684-0.668
    C403.836,424.395,404.541,437.938,406.528,450.201z M415.88,414.799c0.13,7.603,1.396,17.357,2.004,25.383
    c0.257,3.381-1.517,10.078,3.34,10.688c2.371-9.309-1.356-24.001,0-36.738c-1.567-0.658-3.281-1.171-5.344-1.336
    C415.88,413.463,415.88,414.131,415.88,414.799z M403.188,449.533c-1.677-10.125-1.437-25.725-3.34-33.398
    C400.428,427.802,399.978,440.498,403.188,449.533z"/>
        <path class="line color gray" d="M257.573,469.572c2.833,11.639,7.656,21.289,10.688,32.73
    c-6.24,3.334-12.032,7.116-18.703,10.019c-5.341-10.467-10.333-21.283-17.367-30.058c2.572,10.566,10.891,21.17,15.363,32.062
    c-5.873,2.365-8.741,7.736-18.035,6.68c-4.08-5.679-7.164-13.169-12.023-20.038c-0.846-1.196-4.688-5.066-4.676-5.344
    c0.13-2.748,14.891-11.36,18.035-13.359C239.709,476.633,245.717,470.516,257.573,469.572z"/>
        <path class="line color white-shadow" d="M359.771,502.303c10.658-0.551,24.47-1.255,34.065-0.668
    c-5.036-2.707-15.481-2.619-25.382-2.004c-10.933,0.679-23.39,1.996-27.387,7.348c0.562,14.367,0.518,28.126-7.348,34.065
    c-1.025,6.322-0.591,14.104-0.668,21.375c-7.572-1.567-13.16-13.703-24.047-12.023c-1.518-2.49-5.315-2.7-5.344-6.68
    c17.803,4.17,13.887-22.211,16.031-36.737c6.188,0.398,10.291-1.287,16.031-1.336c-5.996-2.088-11.162,0.543-16.699,0
    c-5.34-0.524-8.582-3.256-13.359-2.004c-9.763,2.558-14.412,13.268-23.379,17.366c-13.919,0.999-29.228,0.608-44.085,0.668
    c10.141-3.264,18.832-12.881,30.727-16.698c0.464-0.149,1.309-0.664,1.336-0.668c23.501-4.189,57.993-4.672,87.503-6.012
    c13.821-0.628,27.547-0.495,40.077,1.336c-10.21,7.602-24.687,10.938-36.069,17.366
    C363.566,514.252,363.572,504.98,359.771,502.303z"/>
        <path class="line color white" d="M89.246,577.782c7.611-21.111,15.548-41.897,22.711-63.457
    c3.043,6.977,13.552,6.487,18.035,12.023c-2.176,13.061-3.286,28.575-4.676,44.086c-1.791,19.986-5.801,41.01-0.668,55.441
    C113.415,611.948,100.358,594.057,89.246,577.782z"/>
        <path class="line" d="M337.061,71.466c5.401,17.234,23.839,21.958,36.069,33.398
    c25.302,23.665,41.088,64.059,40.078,116.226c16.479,0.447,30.924-1.139,47.426-0.668c34.766,25.641,13.293,97.199,4.008,134.928
    c-4.793,0.552-8.45,2.237-14.027,2.004c-4.223,11.287-6.252,23.982-8.684,36.738c-4.377,22.961-9.95,45.049-4.008,71.472
    c-12.937,4.431-10.768,23.966-19.371,32.73c-2.536,1.693-8.984-0.523-10.688,2.004c0.515,7.277,8.724,6.862,12.691,10.688
    c13.104,26.751,23.168,56.542,35.402,84.163c-0.926,7.312-5.11,11.366-8.016,16.699c-8.407-0.393-15.548,0.482-23.379,0.668
    c-4.585,8.551-13.022,13.25-27.387,12.023c-0.771,9,12.817,22.537,12.691,32.729c-0.086,7.021-8.218,7.997-6.012,16.031
    c-15.292,1.63-31.493,2.35-46.089,4.676c-5.52,12.787-30.847,15.233-38.742,2.672c-5.635-1.11-11.402,1.462-17.367,0
    c-3.747-0.918-9.847-7.973-13.359-11.355c-12.375-11.92-26.331-23.327-36.738-35.401c1.823-5.773-4.066-8.84-4.008-14.027
    c0.053-4.715,7.385-14.133,10.02-18.703c10.226-17.74,21.275-38.519,30.726-54.773c4.497-0.402,7.915-1.882,13.359-1.336
    c1.457-4.079-2.115-6.055-1.336-11.355c-5.494-2.704-9.31,4.173-15.363,3.34c-5.425-0.746-9.507-7.381-5.344-13.359
    c-16.342,0.892-35.301,1.247-50.765-0.668c-6.938-7.756-10.636-18.754-17.367-26.718c-0.439,12.574,1.36,29.481,2.672,46.089
    c0.874,11.065,5.233,23.758,0.668,31.395c0.423,2.249,1.918,3.426,1.336,6.68c4.379,2.657,11.538,2.908,12.023,8.016
    c0.924,9.712-12.567,5.297-19.371,6.68c-0.653,4.165,3.921,4.448,4.675,9.352c0.922,5.993-3.125,13.033-4.675,18.035
    c-13.571,2.905-29.233,3.72-43.418,6.012c-2.181,1.159-1.6,5.079-2.672,7.347c-7.17,3.464-19.737,5.368-28.054,2.004
    c-1.146-1.08-1.659-2.793-1.336-5.343c-2.672,0-5.344,0-8.016,0c-9.991-12.771-18.662-26.317-29.391-40.746
    c-2.859-3.846-8.955-9.797-9.352-13.359c-0.472-4.233,4.293-12.483,6.012-17.367c6.056-17.203,12.028-34.804,18.703-50.765
    c-5.59-13.336-10.029-27.823-14.027-42.75c3.591,2.42,3.896,8.127,5.344,12.691c3.131-3.326,5.581-7.333,8.016-11.355
    c-0.958-2.604-1.596-5.529-3.34-7.348c-5.228-0.329-6.165,3.632-9.352,5.344c1.261-4.306,4.853-6.28,9.352-7.348
    c-1.808-3.598,0.533-8.205,1.336-11.355c-6.427-7.397-3.861-21.404,2.672-26.719c-0.451-10.624,1.276-20.718,2.004-31.394
    c0.524-7.693,2.384-16.695,1.336-22.711c-1.163-6.673-8.424-10.991-8.684-17.367c-0.154-3.785,3.298-8.057,0.668-11.355
    c2.784-1.446,4.573-3.888,8.016-4.676c-7.104-9.165-7.458-28.593-6.68-43.418c0.264-2.185,3.273-1.625,5.344-2.004
    c1.504-10.773,1.452-21.463,2.672-34.066c0.86-8.889,0.893-25.092,7.348-29.391c10.111-6.733,32.134-1.318,48.093-3.339
    c-10.794-81.804,40.14-148.951,108.878-154.3c8.284-0.645,14.845,1.373,22.043,2.004C315.161,70.586,326.386,66.88,337.061,71.466
    z M397.177,169.656c-4.313-0.807-8.073-2.169-10.688-4.676c-1.468-2.985,0.575-9.48-2.004-11.355
    c-9.314,27.877-41.573-17.435-21.374-24.046c3.822-1.251,5.761,1.986,11.354,2.004c3.217,0.01,6.624-2.719,9.352-2.004
    c4.632,1.214,4.38,7.653,9.352,7.348c-10.114-19.053-24.859-33.476-42.081-45.421c2.487,6.641,7.744,10.513,8.016,19.371
    c4.402,3.375,7.431,12.261,2.672,17.367c-4.98-0.316-3.95,5.886-11.355,4.676c1.319,8.291,5.429,17.232,3.34,26.718
    c-13.811,0.875-31.308-0.293-44.754-2.004c-1.073-7.61-1.983-15.384-3.34-22.71c-0.34-1.852,3.759-3.932,0.668-2.672
    c-4.877-1.407-12.404-0.458-16.031-1.336c-0.809-2.531-1.292-5.387-2.672-7.348c1.201,11.713,2.343,23.485,2.672,36.07
    c-10.143-0.346-17.131,2.463-26.718,2.672c-0.898-12.127-2.318-26.92-2.004-38.074c7.229-2.345,15.439-3.709,25.382-3.34
    c-2.955-14.413-5.969-28.765-11.355-40.746c2.609-6.521,9.146-9.112,17.367-10.02c-63.707-0.422-95.8,36.419-114.222,83.495
    c1.708,0.637,3.81-1.542,5.344-2.672c14.463-10.65,32.06-20.393,55.441-21.375c-0.157,12.247,0.003,27.515,0.668,36.738
    c-20.796,4.909-41.103,11.393-56.109,22.043c-4.57,3.244-10.436,7.587-11.355,13.359c26.997-30.944,81.768-38.086,138.937-40.746
    c35.888-1.669,73.702,0.168,95.519,17.367c-0.304-4.594-1.181-8.616-2.672-12.023c-0.938,3.198,1.692,6.279,0,8.016
    c-2.025-0.646-3.558-1.786-5.344-2.672c-0.385-3.96-1.406-14.022-2.672-12.691C396.859,162.161,398.563,166.877,397.177,169.656z
     M347.08,96.18c1.367,2.196,0.36,6.764,0.668,10.02c-12.518,23.848-53.812,4.91-53.438-16.699
    c0.217-12.512,14.12-17.645,28.055-15.363c10.842,1.775,18.525,11.153,23.379,18.035c-2.631-6.943-5.826-13.322-9.352-19.371
    c-16.178-2.044-38.774-2.216-54.105,0.668c8.392,12.315,13.271,28.143,15.363,46.757c17.213-1.396,39.925-0.9,60.117,0
    C354.788,112.071,350.667,101.502,347.08,96.18z M281.619,92.173c4.04,11.821,6.443,25.882,10.02,36.07
    c9.855-15.054-4.021-40.827-10.688-53.437C275.546,80.36,279.136,84.906,281.619,92.173z M321.029,76.142
    c-9.16-1.542-21.378,0.572-24.047,6.68c-9.71,22.226,37.396,44.174,48.762,22.71C346.495,90.014,333.823,78.294,321.029,76.142z
     M351.756,96.848c-1.582-3.165-3.609-9.062-5.344-8.015c3.987,5.364,4.892,13.811,9.352,18.703
    C356.683,104.601,353.611,100.562,351.756,96.848z M358.436,128.243c6.567-2.184,4.87-12.565,0-15.363c-0.445,0-0.891,0-1.336,0
    C358.206,117.922,362.76,123.51,358.436,128.243z M296.982,121.563c-1.188,2.597-2.771,4.798-3.34,8.016
    c3.18,1.024,7.878-0.603,12.691,0c1.163-3.29,3.489-5.417,4.676-8.684C305.817,120.601,302.401,122.083,296.982,121.563z
     M313.682,121.563c-1.915,2.984-4.132,5.665-5.344,9.352c16.42,0.866,32.266-1.761,47.426,0c0.986-2.799,3.087-4.483,3.34-8.016
    C344.821,121.595,328.156,122.674,313.682,121.563z M263.584,124.903c0.452,12.239,1.481,23.901,2.004,36.07
    c7.193-1.713,15.671-2.141,22.71-4.008c-1.192-11.054-1.97-22.522-2.672-34.066C277.362,122.65,270.341,123.644,263.584,124.903z
     M358.436,141.602c0.586,10.611,14.338,25.108,23.378,15.363c-15.584,4.329-24.215-14.688-16.03-26.05
    C358.695,129.936,358.229,137.857,358.436,141.602z M389.161,142.938c-0.787-6.561-3.144-11.551-10.02-12.023
    C376.995,137.563,382.473,145.162,389.161,142.938z M367.119,131.583c-5.623,6.829-1.081,21.404,6.679,23.378
    c2.422,0.616,10.469,1.544,10.02-4.008c-11.558,3.493-18.922-11.032-13.358-18.703
    C368.849,132.524,369.007,131.03,367.119,131.583z M386.489,145.61c-6.344-0.842-10.431-7.298-8.684-14.027
    C359.974,133.315,377.448,159.512,386.489,145.61z M202.8,142.27c-6.736,3.251-22.175,10.654-25.383,16.031
    c-5.757,9.65-3.804,25.92-5.344,39.41c14.36-15.476,36.756-28.704,65.46-32.062c-0.874-10.704,1.759-24.915-1.336-33.398
    C225.518,134.219,214.078,136.826,202.8,142.27z M310.342,132.25c-4.665,5.529,1.57,15.779,0.668,24.046
    c13.854,0.395,27.523,0.977,40.746,2.004c0.448-10.022-1.547-17.602-3.34-25.382C335.045,133.375,323.237,132.269,310.342,132.25z
     M397.845,156.297c1.505,5.465,0.596,14.365,6.012,16.031c-2.143-12.775-4.739-25.096-10.688-34.066
    c-0.786,0.104-1.896-0.115-2.004,0.668C393.49,143.428,396.096,149.942,397.845,156.297z M385.153,149.618
    c2.36,3.874,1.988,10.481,3.34,15.363c3.024,0.538,4.463,2.662,8.016,2.672c-1.07-9.394-2.799-18.13-6.012-25.382
    C390.313,146.316,386.413,146.646,385.153,149.618z M393.169,173.664c-21.377-10.635-58.774-11.387-88.171-10.02
    c-42.153,1.961-82.548,7.995-111.55,23.379c-9.064,4.808-22.198,11.343-20.707,23.379c23.606-23.028,62.807-35.792,111.55-40.746
    c41.432-4.21,99.842-4.146,120.901,16.031c1.523,1.459,2.314,5.516,4.008,4.008C410.016,180.298,400.199,177.162,393.169,173.664z
     M368.455,173.664c-18.783-3.195-45.017-3.498-60.785-2.672c-44.286,2.321-80.615,8.416-110.214,24.047
    c-9.056,4.782-23.085,11.341-24.715,20.039c-0.814,4.348,1.278,8.813,2.672,9.352c2.336,0.901,7.641-5.122,12.691-8.016
    c21.482-12.312,50.497-22.616,84.163-26.719c44.084-5.372,108.77-8.637,132.925,13.359c2.065,1.88,4.515,5.289,5.344,4.008
    C411.483,183.533,388.495,177.073,368.455,173.664z M245.549,197.711c0.265,26.315,5.558,53.161,7.348,80.156
    c12.035-1.547,23.542-3.623,34.734-6.012c-7.869-4.094-17.819-4.299-29.39-3.34c-1.403-3.763-2.42-11.008-1.336-13.359
    c6.072-2.307,12.324-0.811,19.371-2.672c4.114-1.086,7.556-4.74,12.023-6.012c16.365-4.659,35.16-1.292,56.109-3.34
    c2.376,0.518,0.757,5.032,3.34,5.344c10.645,3.244,19.042-4.539,26.718-4.008c7.811,0.541,13.718,7.179,20.707,10.688
    c-0.197,4.478,0.708,10.06-1.336,12.691c-17.06,6.203-28.238-4.437-44.753-4.676c-1.802,0.87-0.414,4.93-2.672,5.344
    c-9.953,0.224-24.934-0.293-31.395,0c-2.307,0.104-6.323,2.197-9.352,1.336c5.255,1.493,4.905-0.396,11.355-0.668
    c25.801-1.087,63.55,1.011,82.827,6.012c-2.002-26.721-4.293-53.152-8.016-78.152
    C351.636,184.794,286.134,188.676,245.549,197.711z M401.185,276.531c-46.417-8.325-106.938-5.085-150.292,3.339
    c-3.547-26.511-6.444-53.672-8.684-81.491c-23.923,7.249-47.605,14.738-64.792,28.722c1.93,4.761,6.017,3.569,9.352,6.012
    c20.79,15.228,12.72,72.018,0,86.835c0.52,4.528-0.912,7.104-0.668,11.355c2.547,0.639,7.001-5.749,10.688-4.008
    c2.509,28.662,5.944,56.399,7.348,86.167c-3.193,4.154-9.338,5.357-14.695,7.348c0.688,22.691,3.908,42.85,4.676,65.461
    c6.144-1.474,13.34-7.555,19.371-11.355c45.597-11.76,102.435-16.247,158.308-18.703c17.68-0.777,35.434-1.177,49.429,2.004
    c5.054,1.148,9.777,3.967,13.359,3.34c-5.829-12.585-11.623-23.845-8.016-39.41c0.657-2.835,2.994-5.56,3.34-8.684
    c0.993-8.972-3.326-18.398-2.672-27.386c-2.305-1.704-6.95-1.065-8.016-4.008c-6.222-54.786-14.673-107.341-16.699-166.323
    c2.931,0.355,7.555,5.574,8.684,3.34c-0.675-12.461-9.712-16.562-18.035-21.375C398.205,220.827,401.848,252.134,401.185,276.531z
     M405.86,224.43c2.492,26.219,3.649,54.555,6.68,82.159c2.237,20.379,4.671,39.832,6.68,59.449
    c0.541,5.281-0.596,14.226,6.012,16.699c0.442-25.523-3.519-52.294-6.012-78.82c-2.506-26.672-5.896-53.382-7.348-80.155
    c-2.229-1.35-5.572-5.093-7.348-4.676C405.262,220.224,405.714,222.889,405.86,224.43z M414.544,223.094
    c-1.536,1.581-0.239,5.995-0.668,8.683c12.378-0.026,13.368,11.706,16.031,22.711c5.127,21.184,1.453,47.962-7.348,59.449
    c2.262,13.325,2.666,28.506,4.676,42.082c11.778-0.69,23.292-1.646,35.402-2.004c9.607-36.736,26.344-98.981,0-129.584
    C447.642,222.949,429.748,224.366,414.544,223.094z M180.757,237.121c-1.018-4.596-5.866-8.656-6.68-12.691
    c-0.67,0.002-0.795-0.541-1.336-0.668c-13.962,1.846-32.27-0.653-45.421,2.003c4.167,1.213,5.465,4.553,6.68,8.016
    c7.08,20.183,5.42,66.436,4.008,97.523c-0.429,9.446-0.165,23.092-2.004,30.058c-0.739,2.799-5.276,6.585-4.008,8.016
    c5.657,2.673,9.477-4.296,15.363-5.344c9.55-1.7,22.273,3.193,31.395-2.004C185.343,329.047,188.288,271.121,180.757,237.121z
     M123.312,227.101c-5.99,15.928-6.307,44.347-6.012,60.785c5.406,0.508,2.519-7.278,6.012-8.684
    c-1.698-5.561-3.185-18.695,2.672-20.707c9.403,10.106,3.59,30.87,3.34,42.082c-0.142,6.359,2.463,12.741,2.672,19.371
    c0.515,16.36-3.204,32.558-4.008,48.093c6.49-1.844,4.997-9.109,5.344-14.695c1.545-24.88,3.23-56.484,2.004-83.495
    c-0.752-16.564-0.629-33.264-8.016-43.418C125.277,225.949,125.355,227.586,123.312,227.101z M187.437,314.604
    c11.798-21.644,15.736-71.54-7.348-81.492C188.16,254.235,187.485,287.58,187.437,314.604z M423.228,307.925
    c9.214-20.863,10.229-62.98-8.016-74.812C417.777,258.157,418.958,284.586,423.228,307.925z M289.635,247.808
    c-6.989,6.593-19.919,7.244-32.062,8.684c0.052,3.956,1.134,6.881,1.336,10.688c11.173-2.558,21.552-1.782,30.058,2.672
    c16.384-3.878,37.075-3.448,57.445-3.34c-0.132-2.581-0.024-4.922,0.668-6.68c16.567,2.247,27.92,11.354,46.089,6.68
    c0.204-4.211-0.105-7.91-0.668-11.355c-6.16-2.523-11.95-5.417-17.367-8.684c-8.202,3.376-18.997,4.159-30.058,4.676
    c-1.385-1.287,0.229-5.572-2.672-5.344C323.702,245.36,306.239,246.155,289.635,247.808z M127.988,279.87
    c1.438-6.121,0.289-15.423-2.672-19.371C124.031,265.162,121.444,279.003,127.988,279.87z M298.986,270.519
    c13.777-2.191-9.032-0.11-10.02,1.336C293.571,271.565,295.757,271.033,298.986,270.519z M121.308,287.218
    c1.565,1.231,4.25-0.695,7.348,0c0-1.781,0-3.562,0-5.344C124.209,280.051,121.519,282.907,121.308,287.218z M109.285,290.558
    c0.19,5.822,1.79,10.233,4.676,13.359c4.676,0,9.352,0,14.027,0c-2.734-4.49,0.913-10.648,0-14.695
    C121.225,289.139,114.894,289.487,109.285,290.558z M115.296,329.968c1.447-6.569,0.304-15.727,0.668-23.379
    c-3.513-0.94-4.855-4.051-6.68-6.68C109.975,311.242,109.517,323.724,115.296,329.968z M117.3,308.593
    c1.669-0.121,9.945,1.208,11.355-1.336c-1.265-2.965-7.905-0.556-11.355-1.336C117.3,306.812,117.3,307.702,117.3,308.593z
     M117.968,309.929c0.394,9.078-0.488,16.879-0.668,25.383c6.027,0.875,3.052,10.752,10.688,10.02
    c0.955-11.667,2.074-22.259,1.336-34.066C126.855,309.503,122.174,309.953,117.968,309.929z M194.116,329.968
    c-3.068,1.385-5.851,3.055-8.684,4.676c-4.343,27.676,2.297,55.859,3.34,84.163c4.5-1.957,9.226-3.688,13.359-6.012
    C199.006,385.64,197.167,357.198,194.116,329.968z M107.949,339.319c1.328,3.793,3.573,6.669,6.012,9.352
    c1.499-2.509,4.051-3.965,6.68-5.344C119.76,334.69,112.269,333.407,107.949,339.319z M106.613,346.667
    c-1.625,8.628,7.734,12.808,9.352,20.039c1.264,5.649-0.41,12.155-0.668,18.035c-0.781,17.761-3.687,37.048-1.336,52.769
    c2.492-15.01,3.857-31.795,4.676-47.425c0.284-5.419,3.042-10.423,3.34-15.363c0.838-13.91-10.34-19.229-12.691-30.058
    c-0.038-0.408-0.1-0.791-0.668-0.668C108.73,345.667,107.591,346.086,106.613,346.667z M113.96,351.342
    c2.789,3.668,3.889,9.025,8.016,11.355c-0.773-5.906,1.619-14.979-1.336-18.703C119.105,347.136,115.267,347.974,113.96,351.342z
     M116.632,438.846c4.706,2.879,5.217,10.375,14.027,7.348c1.089-24.961,1.536-50.565,2.672-75.48
    c-3.025-1.11-4.978,0.859-7.348-0.668c1.18-7.058,0.795-15.681,2.004-22.71c-1.956,0.174-2.052-1.51-4.008-1.336
    C123.1,378.718,119.035,404.678,116.632,438.846z M427.235,359.358c2.183,15.185,2.39,32.345,5.344,46.757
    c2.111-16.591,5.818-31.588,8.016-48.093C436.206,358.532,431.518,358.742,427.235,359.358z M443.935,358.022
    c-3.234,21.036-9.72,42.38-10.02,64.125c2.335-10.233,3.86-21.664,6.012-32.73c2.104-10.824,5.834-22.33,5.344-31.395
    C444.825,358.022,444.38,358.022,443.935,358.022z M174.745,367.374c-1.557,14.023-1.87,27.096-2.672,42.082
    c-0.619,11.571-3.777,23.787-2.004,32.73c1.269,6.401,8.29,14.728,4.008,24.047c5.528,2.256,12.909,11.31,16.699,10.688
    c-3.347-38.067-5.55-77.277-10.02-114.222C180.792,366.296,175.084,364.15,174.745,367.374z M136.671,370.713
    c-1.067,26.542-2.023,53.195-2.672,80.156c11.783,0.205,22.545-0.611,32.062-2.672c1.164-27.782,4.134-53.756,4.676-82.16
    c-6.783,1.061-17.264,1.061-24.047,0C143.576,367.821,142.449,371.593,136.671,370.713z M433.915,454.209
    c-2.047-11.758-1.225-26.385-4.676-36.738C426.376,430.013,428.134,446.235,433.915,454.209z M106.613,440.182
    c1.637,6.862,17.135,16.697,24.715,17.367c2.771,0.245,5.68-1.132,8.684-1.336c10.451-0.711,22.487-0.094,32.062-2.004
    c-0.123-3.439-1.544-5.58-2.672-8.016c-0.408,9.812-27.19,5.801-36.07,6.68c-1.049-1.178-0.188-4.266-2.004-4.676
    c-3.507-0.39-5.057,1.177-8.684,0.668c-1.208-6.351-10.92-6.71-12.691-12.023c-1.106-3.318,2.665-7.438,0-12.023
    C107.407,429.828,105.293,434.648,106.613,440.182z M124.648,488.275c1.204,3.776-0.015,7.63,2.672,11.355
    c0.128-13.677,1.083-26.526,0.668-40.746c-6.951-2.624-13.067-6.081-18.035-10.688
    C104.832,466.703,120.292,474.603,124.648,488.275z M171.405,456.881c-12.306,1.943-26.464,2.035-40.746,2.004
    c-1.03,7.453-0.668,18.563-0.668,28.723c0,9.388-2.603,21.673,6.012,23.379c3.821-8.426,0.147-24.346,3.34-33.398
    c7.442-1.064,17.774-2.648,24.714-2.004c0.101,12.792-1.254,24.128-3.34,34.734c2.906,0.011,6.01,0.221,8.016-0.668
    C170.086,492.967,171.656,472.941,171.405,456.881z M374.466,458.885c-1.657,10.812-3.884,21.053-6.011,31.395
    c8.054-0.63,17.076-0.291,24.714-1.336c4.907-9.566,9.236-19.71,13.359-30.059C395.967,457.878,386.186,459.328,374.466,458.885z
     M337.729,460.221c0,10.688,0,21.375,0,32.062c6.646-0.034,12.239-1.12,19.371-0.668c0.891-11.355,2.738-21.754,4.676-32.062
    C353.021,459.037,346.303,460.557,337.729,460.221z M363.111,459.553c-1.679,11.458-2.803,23.471-4.008,35.402
    c2.004,0,4.008,0,6.012,0c1.724-12.304,4.302-23.753,6.68-35.402C368.9,459.553,366.006,459.553,363.111,459.553z
     M407.864,459.553c-1.291,5.548-3.83,10.701-6.68,17.367c-3.435,8.035-8.438,15.021-4.676,20.039
    c4.524-13.066,10.414-24.766,15.363-37.406C410.536,459.553,409.2,459.553,407.864,459.553z M413.208,460.221
    c-3.909,10.117-7.951,20.103-11.355,30.727c5.87-9.048,10.679-19.157,14.695-30.059
    C415.772,460.328,414.757,460.008,413.208,460.221z M326.373,461.557c1.476,10.771,2.135,22.356,2.004,34.734
    c2.672,0,5.344,0,8.016,0c-1.229-10.549-0.887-24.794,0-35.402C332.729,460.787,329.195,460.816,326.373,461.557z M405.86,492.951
    c4.449-10.914,10.534-20.193,14.695-31.395c-1.263,0.149-1.474-0.753-2.672-0.668C415.208,472.464,407.424,482.489,405.86,492.951
    z M282.287,466.232c3.382,8.864,5.146,19.346,7.348,29.391c12.946,0.031,23.365-2.464,36.07-2.672c0-10.465,0-20.93,0-31.395
    C311.068,462.95,295.236,463.149,282.287,466.232z M406.528,497.627c8.558-9.032,11.701-23.479,17.367-35.402
    c-0.92,0.029-1.467-0.314-2.004-0.668C418.032,474.842,410.123,484.077,406.528,497.627z M422.56,472.244
    c4.79-1.668,8.346-4.568,12.023-7.348c-4.018,0.232-5.334-2.236-9.352-2.004C424.109,465.778,423.164,468.841,422.56,472.244z
     M272.268,466.9c2.506,11.299,5.962,21.647,8.016,33.398c3.517,0.399,5.739-0.496,8.684-0.668
    c-3.274-10.977-4.22-24.28-8.684-34.066C277.926,466.324,274.786,466.302,272.268,466.9z M269.596,466.9
    c-2.93,1.746-8.697,0.654-11.355,2.672c5.688,7.894,8.129,19.035,11.355,29.391c2.542-1.243,7.25-0.319,8.683-2.672
    C274.078,487.801,274.538,474.65,269.596,466.9z M173.409,501.635c2.884-8.917,8.357-15.244,18.035-17.367
    c-4.228-7.128-11.582-11.129-17.367-16.699C173.442,478.068,171.571,490.888,173.409,501.635z M230.854,482.264
    c-3.144,1.999-17.905,10.611-18.035,13.359c-0.013,0.277,3.83,4.147,4.676,5.344c4.86,6.869,7.944,14.359,12.023,20.038
    c9.294,1.057,12.162-4.314,18.035-6.68c-4.472-10.892-12.792-21.495-15.363-32.062c7.034,8.774,12.026,19.591,17.367,30.058
    c6.671-2.902,12.463-6.685,18.703-10.019c-3.032-11.441-7.854-21.092-10.688-32.73
    C245.717,470.516,239.709,476.633,230.854,482.264z M103.941,482.264c-0.567,4.929,3.497,9.366,5.344,14.027
    c2.001-6.015,5.572-10.46,8.684-15.363c-2.964-2.825-4.103-7.476-6.68-10.688C110.612,474.891,104.479,477.59,103.941,482.264z
     M411.872,496.959c2.581,0.131,4.923,0.023,6.68-0.668c2.555-8.357,8.723-16.657,9.352-24.715
    C417.604,475.08,417.199,488.48,411.872,496.959z M194.784,488.943c5.393,2.177,11.579,3.562,17.367,5.344
    c9.4-7.744,19.405-14.885,29.391-22.043C223.215,475.069,206.783,479.79,194.784,488.943z M160.718,488.275
    c0.562-3.445,0.872-7.145,0.668-11.355c-0.891,0-1.781,0-2.672,0C159.334,480.753,159.565,484.975,160.718,488.275z
     M140.679,479.592c-1.104,24.771-1.54,44.82,5.343,63.456c1.82-1.297,5.584-0.65,7.348-2.004
    c-0.995-6.13-0.069-14.18-1.336-20.039c1.862-1.478,5.275-1.404,8.016-2.004c-0.276-13.642-1.684-26.341-2.004-41.413
    C151.464,477.463,146.948,479.403,140.679,479.592z M114.628,490.279c1.201-2.361,6.797-0.328,8.684-2.004
    c-2.579-0.761-2.516-4.164-4.676-5.344C117.541,485.193,113.539,488.052,114.628,490.279z M174.745,500.967
    c11.281-1.633,23.32-2.508,33.398-5.344c-7.904-1.225-14.893-3.366-18.035-9.352C182.425,488.607,178.154,494.355,174.745,500.967
    z M114.628,512.989c1.25-4.984,5.704-6.765,12.023-6.679c-0.801-5.211-3.697-8.327-3.34-14.695
    C108.318,485.229,107.068,505.508,114.628,512.989z M367.787,492.283c0,0.668,0,1.336,0,2.004
    c6.648,2.479,17.467,0.79,25.382,2.004c0.016-1.574-1.15-1.967-0.668-4.008C385.846,492.529,374.812,491.292,367.787,492.283z
     M399.181,497.627c2.742-0.916,5.453,1.611,6.68,0c-1.897-1.665-1.7-5.425-5.344-5.344
    C400.778,494.782,397.829,496.078,399.181,497.627z M348.416,493.619c-3.889,0.118-10.213-1.588-10.688,2.004
    c4.25,0.012,15.399,1.156,19.371-1.336C356.139,491.22,351.645,493.52,348.416,493.619z M325.037,494.287
    c-10.435,2.479-24.562,1.267-34.734,4.008c9.042,1.626,26.312-0.896,36.07-2.672C326.231,494.873,325.632,494.583,325.037,494.287
    z M172.073,503.639c-0.387,4.733-1.366,8.875-6.012,9.351c11.356,7.124,9.953,27.009,14.695,40.746
    c14.396,5.644,23.909,16.169,33.398,26.719c1.895-3.294-1.625-4.39-1.336-8.016c0.08-1.924,2.849-1.159,2.672-3.34
    c-4.691-21.582-2.285-50.261-7.347-71.472C196.789,500.3,184.505,502.042,172.073,503.639z M361.775,516.997
    c11.383-6.428,25.859-9.765,36.069-17.366c-12.53-1.831-26.256-1.964-40.077-1.336c-29.511,1.34-64.002,1.822-87.503,6.012
    c-0.027,0.004-0.872,0.519-1.336,0.668c-11.895,3.817-20.585,13.435-30.727,16.698c14.858-0.06,30.167,0.331,44.085-0.668
    c8.967-4.099,13.616-14.809,23.379-17.366c4.777-1.252,8.02,1.479,13.359,2.004c5.537,0.543,10.703-2.088,16.699,0
    c-5.74,0.049-9.844,1.734-16.031,1.336c-2.145,14.526,1.771,40.907-16.031,36.737c0.029,3.979,3.826,4.189,5.344,6.68
    c10.887-1.68,16.475,10.456,24.047,12.023c0.077-7.271-0.357-15.053,0.668-21.375c7.865-5.939,7.91-19.698,7.348-34.065
    c3.997-5.352,16.454-6.669,27.387-7.348c9.9-0.615,20.346-0.703,25.382,2.004c-9.596-0.587-23.407,0.117-34.065,0.668
    C363.572,504.98,363.566,514.252,361.775,516.997z M270.264,500.967c2.264,2.003,5.311-0.896,8.683,0c0-0.668,0-1.336,0-2.004
    C277.609,498.542,271.149,498.715,270.264,500.967z M399.181,498.963c-0.288,0.175,0.292,1.84,0,2.004
    c-3.579,2.008-7.873,5.702-11.355,8.016c0,1.113,0,2.226,0,3.339c3.785,0,7.57,0,11.355,0c2.804,5.213,2.46,13.572,5.344,18.703
    c1.58-9.552,2.064-20.2,2.004-31.394C404.291,499.367,401.37,497.633,399.181,498.963z M357.768,503.639
    c-12.484-3.283-13.646,10.635-8.016,16.03c-2.182,1.398-7.236,3.43-6.012,6.012C350.878,521.521,368.36,515.024,357.768,503.639z
     M343.072,521.005c1.618,1.422,2.954-1.487,4.008-2.672c-5.188-2.709-0.489-12.948-1.336-14.026
    C341.581,506.6,343.467,514.943,343.072,521.005z M317.689,510.318c-0.967-5.771-10.567-7.065-15.363-2.672
    C300.911,520.63,319.507,521.168,317.689,510.318z M412.54,513.657c2.24,8.893,2.138,20.129,6.012,27.387
    c1.058-1.654,4.673-0.272,6.012,0c7.28,8.234-1.849,17.045-2.672,25.383c7.947,1.241,7.6,9.757,2.004,13.359
    c0.562,3.646,2.827,7.708,1.336,11.355c-4.96,1.594-8.903,0.692-14.695,0.668c-0.404-1.6-0.96-3.048-0.668-5.344
    c-7.545,1.807-13.69,5.013-21.375,6.68c2.387,5.406,4.531,11.055,4.676,18.703c18.549-0.154,34.944-2.462,53.438-2.672
    c2.465-4.283,6.953-7.371,6.68-13.359c-0.259-5.647-5.106-13.88-8.016-20.707c-8.597-20.174-18.496-42.669-25.383-61.453
    c-4.559-2.12-7.744-5.614-12.023-8.015C406.366,511.371,411.994,509.974,412.54,513.657z M115.296,514.993
    c1.303,8.939,21.868,2.706,12.691-7.347C121.468,507.448,114.504,509.562,115.296,514.993z M303.662,525.681
    c1.855-2.152,5.26-2.756,6.68-5.344c-6.125-1-9.105-5.145-10.02-11.354C290.583,512.338,294.115,524.243,303.662,525.681z
     M342.404,527.685c-0.335,7.459-5.583,10.003-7.348,16.031c2.844,0.395,4.418-0.48,6.68-0.668
    c8.826,7.267,21.313,11.505,28.055,20.707c2.643,3.608,3.003,8.198,7.347,10.688c1.009-20.144,2.943-39.362,2.672-60.785
    c2.499-0.841,6.625-0.055,6.012-4.007C372.444,514.086,355.456,520.697,342.404,527.685z M407.196,530.356
    c-1.675,2.36-3.98,1.934-2.672,6.012c3.117,0,6.234,0,9.352,0c-0.185-8.498-2.967-14.399-2.672-23.379
    c-2.056,0.498-1.283-1.833-3.34-1.336C408.373,518.619,407.029,523.732,407.196,530.356z M138.675,519.001
    c0.473-2.477-1.141-2.866-0.668-5.344c-2.49,0.041-4.225-0.673-6.012-1.336C132.923,515.847,136.553,516.67,138.675,519.001z
     M160.718,519.669c-1.965,0.707-4.425,0.919-6.012,2.004c5.162,1.911,11.697-0.228,16.699-0.668
    c-2.681-3.553-3.88-8.588-10.02-8.684C161.453,515.061,161.517,517.797,160.718,519.669z M383.149,514.325
    c2.454,21.37,4.248,43.401,8.016,63.457c4.323-5.901,13.042-8.009,14.695-15.363c1.385-6.157-1.902-16.136-3.34-24.047
    c-1.559-8.582-3.586-16.651-4.008-24.047C392.725,513.53,389.438,514.354,383.149,514.325z M124.648,625.876
    c-5.133-14.432-1.123-35.455,0.668-55.441c1.39-15.511,2.5-31.025,4.676-44.086c-4.483-5.536-14.992-5.047-18.035-12.023
    c-7.163,21.56-15.1,42.346-22.711,63.457C100.358,594.057,113.415,611.948,124.648,625.876z M125.316,521.005
    c3.278,3.463,6.852,3.316,13.359,2.672c0.361-3.188-4.053-6.966-7.348-8.684C131.228,518.901,127.346,519.027,125.316,521.005z
     M379.142,557.743c-0.401,8.508-2.053,18.002,2.672,23.379c2.539-0.356,3.704-2.086,6.68-2.004
    c-3.141-20.683-4.771-42.876-7.348-64.125C381.964,527.716,379.75,544.886,379.142,557.743z M285.627,521.005
    c0.521,5.715,4.195,8.273,8.016,10.688c1.555-2.23,5.239-2.331,6.68-4.676c-5.028-1.651-6.598-6.761-8.684-11.355
    C290.056,517.863,286.661,518.254,285.627,521.005z M312.346,526.349c-3.146,3.312-7.508,5.406-10.688,8.684
    c4.892,18.941,20.041-3.452,14.695-16.699C315.355,521.343,311.019,521.014,312.346,526.349z M290.303,533.696
    c-2.029-3.982-5.055-6.968-6.68-11.355C275.917,526.032,281.574,539.414,290.303,533.696z M158.046,545.72
    c-2.235-6.671-1.067-16.745-4.008-22.711C155.217,530.736,152.344,542.516,158.046,545.72z M156.042,523.677
    c1.573,9.561,1.831,20.436,5.344,28.055c6.175,0.06,12.976-0.507,17.367,1.336c-2.083-10.162-4.99-19.502-6.68-30.059
    C166.407,522.909,162.102,524.171,156.042,523.677z M298.318,532.36c5.671-0.569,11.855-4.166,11.355-8.684
    C306.57,527.253,300.743,528.105,298.318,532.36z M185.433,588.47c-8.05-0.479-14.584,0.557-18.703,4.008
    c0.116,4.337,1.322,7.584,2.004,11.355c-2.777,2.566-9.346,1.341-13.359,2.672c-5.464-26.375-10.013-53.666-14.695-80.824
    c-3.117,0-6.234,0-9.352,0c-0.708,29.156-4.667,60.773-7.348,90.176c28.532-4.866,59.903-6.894,88.171-12.023
    c-2.304-9.369-17.047-5.984-22.71-10.02c1.357,1.121,4.001,4.42,3.34,5.344C189.795,596.13,186.619,593.295,185.433,588.47z
     M407.864,560.415c3.763-3.207,1.721-9.452,1.336-13.359c1.357-3.318,5.713-3.639,6.68-7.348
    c-1.137-3.093-8.506,0.046-10.688-2.004C405.767,545.592,406.572,553.247,407.864,560.415z M411.204,553.067
    c2.899-0.663,1.901-5.224,3.34-7.348c0.509,13.667-10.318,21.729-17.367,30.059c15.232-3.945,28.869-12.952,26.719-32.062
    C417.773,540.052,407.799,545.059,411.204,553.067z M146.022,545.052c3.172,20.207,7.529,39.229,10.688,59.449
    c3.927,0.142,7.159-0.411,10.02-1.336c-0.177-3.163-1.531-5.148-1.336-8.684c-5.187,2.3-8.906-1.468-10.02-5.344
    c1.474-4.315,6.238-5.34,8.016-9.352c-1.516-4.496-1.33-10.693-2.672-15.363c-0.859,1.812-3.319,2.024-6.012,2.004
    c-7.241-4.091-0.947-13.545,5.344-14.027C157.555,547.392,153.535,541.239,146.022,545.052z M334.389,554.403
    c5.316,2.477,8.877,6.709,14.027,9.352c4.3-2.156,12.46-0.454,17.367-2.004c-10.57-5.238-15.637-15.98-30.059-17.367
    C334.458,547.671,335.137,552.195,334.389,554.403z M290.971,548.392c4.639,3.308,12.32,7.917,17.367,12.691
    c2.094,1.98,1.867,3.943,4.676,4.676c3.751,0.978,11.18-0.875,16.031-2.004c-7.357-3.048-10.475-12.585-20.039-11.355
    C305.901,546.312,298.218,544.209,290.971,548.392z M249.557,619.864c15.064,14.103,31.455,26.88,46.757,40.745
    c5.591-29.811,7.899-62.905,14.027-92.179c-5.992-8.035-14.637-13.418-22.043-20.039
    C277.262,574.093,262.606,596.176,249.557,619.864z M182.761,556.407c-7.503-3.32-24.131-6.033-28.723,0.668
    c-2.561,3.738-1.46,7.302,2.004,8.016c3.06,0.631,6.755-4.242,10.02-4.676c14.553-1.935,21.614,9.332,30.059,16.031
    c4.917-0.23,9.963,2.937,13.359,2.004C200.052,569.386,194.625,561.659,182.761,556.407z M335.725,581.79
    c4.941,0.489,8.158-0.748,12.691-0.668c-0.47-5.542-1.818-10.205-2.004-16.031c-4.229-2.897-7.938-6.312-12.023-9.352
    C332.745,566.027,336.131,571.297,335.725,581.79z M165.394,579.786c5.302-1.823,11.45-2.8,17.367-4.008
    c-0.751-3.033-1.057-6.514-2.004-9.352c-5.36-1.987-9.801-4.894-18.035-4.008C162.312,566.941,164.757,574.112,165.394,579.786z
     M348.416,565.091c4.445,31.179,9.115,62.134,14.027,92.847c15.199-0.387,28.851-2.32,44.085-2.672
    c-13.102-30.092-24.223-62.167-38.741-90.843C362.043,565.359,355.075,565.071,348.416,565.091z M417.216,568.431
    c1.609,0.273,1.452-1.22,3.34-0.668c-0.114-0.999,0.238-2.465-0.668-2.672C419.436,566.643,417.668,566.879,417.216,568.431z
     M311.678,567.763c-4.354,31.938-8.207,64.379-13.359,95.519c15.889-2.146,33.068-3.001,50.098-4.008
    c-3.213-25.732-9.219-48.671-12.023-74.812c-3.655-1.257-3.486-11.482-4.676-17.367
    C325.241,567.521,318.855,568.039,311.678,567.763z M184.097,575.778c2.468-0.426,6.654,0.865,8.016-0.668
    c-2.808-2.313-5.49-4.753-8.684-6.68C183.052,571.479,184.612,572.591,184.097,575.778z M405.86,574.442
    c-7.271,2.699-14.368,6.218-22.043,7.348c-0.266,2.26,2.701,6.496,4.676,8.684c7.423-1.061,14.687-4.623,21.375-7.348
    c6.567-2.675,15.334-4.444,17.367-12.023C420.205,566.357,412.191,572.093,405.86,574.442z M391.833,611.849
    c-2.487-14.213-7.326-29.633-16.031-35.402C382.235,587.158,385.884,600.653,391.833,611.849z M172.073,587.802
    c4.549-1.604,10.644-2.007,18.035-1.336c7.167,0.65,34.952,10.956,36.07,4.008c0.795-4.942-9.005-7.397-14.027-8.684
    c-11.198-2.868-19.306-5.253-32.062-4.008c-10.847,1.059-23.965,4.903-22.043,14.695
    C165.61,595.7,166.185,589.878,172.073,587.802z M421.224,579.786c-2.398,3.391-8.569,3.008-10.02,7.348
    c0.989,0.124,0.612,1.614,0.668,2.672c4.008,0,8.016,0,12.023,0C423.597,585.874,424.023,581.217,421.224,579.786z
     M337.061,584.462c6.705,22.685,9.423,49.358,13.359,74.812c2.829-0.956,7.305-0.266,10.02-1.336
    c-5.584-22.693-8.419-48.135-10.688-74.144C347.563,583.6,340.095,583.333,337.061,584.462z M209.479,593.146
    c-7.069-1.396-16.052-4.427-22.711-4.008C191.249,592.971,203.102,599.602,209.479,593.146z M125.316,617.86
    c0.473,4.871,2.005,8.682,3.34,12.691c26.485-3.574,52.796-7.321,80.156-10.02c-0.849-5.194,5.166-10.264,2.003-13.359
    C182.648,611.068,154.239,614.721,125.316,617.86z M393.169,613.853c0.035,3.973,1.622,6.394,2.672,9.352
    c11.794-0.229,22.945-1.102,25.383-10.688C412.225,613.313,401.739,612.625,393.169,613.853z M253.565,633.892
    c16.015,15.156,32.346,29.997,48.093,45.421c34.23-1.84,66.099-6.041,100.194-8.016c-1.645-7.879,5.06-7.409,5.344-13.359
    c-36.463,2.057-72.18,4.858-108.21,7.348c-16.501-11.331-31.925-27.301-46.089-38.741
    C254.135,627.978,253.348,631.437,253.565,633.892z M138.007,631.888c0.704,2.79-1.407,4.525,0,6.011
    c9.285,0.38,16.726-1.086,23.378-3.34c0.299-1.526,2.356-4.709,0.668-6.011C154.735,630.357,146.068,630.819,138.007,631.888z
     M136.003,636.562c-0.015-1.573,1.15-1.966,0.668-4.007c-0.668,0-1.336,0-2.004,0
    C134.322,635.071,133.823,635.597,136.003,636.562z M321.697,681.316c4.403,2.852,12.01,6.472,19.371,5.344
    c4.716-0.723,14.052-7.702,11.355-8.684C343.242,680.15,330.294,678.559,321.697,681.316z"/>
        <path class="line" d="M375.802,576.446c8.705,5.77,13.544,21.189,16.031,35.402
    C385.884,600.653,382.235,587.158,375.802,576.446z"/>
        <path class="line color white" d="M252.897,626.544c14.165,11.44,29.588,27.41,46.089,38.741
    c36.03-2.489,71.747-5.291,108.21-7.348c-0.284,5.95-6.988,5.48-5.344,13.359c-34.096,1.975-65.964,6.176-100.194,8.016
    c-15.747-15.424-32.079-30.265-48.093-45.421C253.348,631.437,254.135,627.978,252.897,626.544z"/>
        <path class="line" d="M357.1,374.053c-10.27-0.236-17.028,2.36-24.047,0
    c-16.262-5.469-16.793-42.408-1.336-46.757c5.865-1.65,17.964-1.97,24.047,0.668C367.868,333.213,371.401,368.071,357.1,374.053z
     M364.447,363.366c-1.167-10.569,0.405-19.38-2.672-26.718c-4.283-10.212-30.08-11.193-36.07-4.676
    c-4.623,5.029-4.487,22.746-1.336,31.394c4.137,11.355,14.511,9.563,28.055,9.352c-5.967-2.576-11.42,0.474-17.367-1.336
    c-10.191-3.101-17.671-35.498-3.34-40.746c7.627-2.793,20.547-1.603,24.715,2.004c7.106,6.15,5.472,21.103,5.344,33.398
    c-1.842,3.057-4.985,4.812-8.684,6.012C360.522,372.801,361.398,366.997,364.447,363.366z M332.385,335.979
    c4.789-0.079,11.424,0.316,13.359-0.668c-0.007-5.56-8.063-3.07-12.691-4.008C333.439,333.472,332.598,334.411,332.385,335.979z
     M331.049,335.979c1.096,0.109,1.096-4.118,0-4.008C330.452,332.501,328.091,336.064,331.049,335.979z M346.412,335.312
    c2.09,0.136,4.903-0.451,6.012,0.668c0.484-2.043-1.152-1.965-0.668-4.008c-1.781,0-3.562,0-5.344,0
    C346.412,333.085,346.412,334.198,346.412,335.312z M355.764,368.709c9.868-3.9,4.827-31.094-2.672-36.07
    C355.215,343.43,354.885,356.674,355.764,368.709z M331.717,366.038c-2.608-8.97-2.845-20.311-4.008-30.726
    C324.24,344.629,326.629,359.344,331.717,366.038z M330.381,338.651c2.117,0.919,18.276,2.335,22.043-1.336
    C345.486,338.171,335.104,335.582,330.381,338.651z M332.385,343.995c-0.12-2.178,1.569-3.215-1.336-3.34
    C330.029,341.613,330.398,344.137,332.385,343.995z M333.721,343.995c5.2-0.521,10.75,1.083,12.691-1.336
    c-1.104-0.011-0.374-1.853-1.336-2.004c-4.099,1.779-7.918-0.109-11.355,0C333.721,341.769,333.721,342.882,333.721,343.995z
     M347.08,343.327c1.98-0.469,6.294,1.396,5.344-2.004c-0.498-1.507-3.747-0.261-5.344-0.668
    C347.08,341.546,347.08,342.437,347.08,343.327z M331.049,348.671c5.513-2.503,18.076,2.045,21.375-2.672
    c-5.793-1.555-14.47-0.226-21.375-0.668C331.049,346.444,331.049,347.558,331.049,348.671z M333.721,352.01
    c3.059-0.324,10.259,1.398,12.691-1.336c-1.685-2.991-8.814-0.537-12.691-1.335C333.721,350.229,333.721,351.12,333.721,352.01z
     M347.748,352.01c1.883-0.344,5.646,1.192,4.676-2.003c-0.288-1.494-3.292-0.271-4.676-0.668
    C347.748,350.229,347.748,351.12,347.748,352.01z M331.717,356.018c5.423,0.659,17.064,1.989,21.375-0.668
    c-4.991-2.802-14.881-0.706-21.375-2.004C331.717,354.237,331.717,355.127,331.717,356.018z M334.389,359.358
    c2.758,0.737,11.688,1.904,13.359-0.668C344.99,357.953,336.06,356.786,334.389,359.358z M348.416,359.358
    c0.16,0.966,5.497,1.553,4.676-0.668C352.931,357.724,347.594,357.137,348.416,359.358z M332.385,364.702
    c2.695-0.082,15.614,1.271,21.375-1.336c-4.771-4.139-13.455-0.654-21.375-2.004C332.385,362.475,332.385,363.588,332.385,364.702
    z M336.393,370.045c5.789,0,11.578,0,17.367,0c0-1.113,0-2.227,0-3.34c-1.113,0-2.227,0-3.34,0
    c-1.771-0.213,0.624,3.742-2.004,2.672c0.128-5.694-10.233-0.899-13.359-3.34C335.276,367.599,335.859,368.797,336.393,370.045z"
        />
    </g>
    <!--Shadow SVG-->


    <!-- Filter for glow effect -->
    <g style="overflow:hidden; text-anchor: middle; font-size:50; font-family: Impact, sans-serif">
        <defs>
            <filter id="glow">
                <feGaussianBlur stdDeviation="4 4" result="glow"/>
                <feMerge>
                    <feMergeNode in="glow"/>
                    <feMergeNode in="glow"/>
                    <feMergeNode in="glow"/>
                    <feMergeNode in="glow"/>
                    <feMergeNode in="glow"/>
                    <feMergeNode in="glow"/>
                    <feMergeNode in="glow"/>
                    <feMergeNode in="glow"/>
                </feMerge>
            </filter>
        </defs>
    </g>
</svg>